# Created by Kenney (www.kenney.nl)

mtllib Spirit_Bow_OBJ.mtl

v 6 14 -0.5
v 6 13 -0.5
v 6 14 0.5
v 6 13 0.5
v 2 14 -0.5
v 2 14 0.5
v 2 13 0.5
v 2 13 -0.5
v 5 14 -0.5
v 5 14 0.5
v 5 13 0.5
v 5 13 -0.5
v 7 13 -0.5
v 7 12 -0.5
v 7 13 0.5
v 7 12 0.5
v 6 12 0.5
v 6 12 -0.5
v 2 12 -0.5
v 2 12 0.5
v 1 13 -0.5
v 1 13 0.5
v 1 12 0.5
v 1 12 -0.5
v 8 12 -0.5
v 8 11 -0.5
v 8 12 0.5
v 8 11 0.5
v 7 11 0.5
v 7 11 -0.5
v 4 12 -0.5
v 4 11 -0.5
v 4 12 0.5
v 4 11 0.5
v 3 12 -0.5
v 3 12 0.5
v 3 11 0.5
v 3 11 -0.5
v 1 11 -0.5
v 1 11 0.5
v 0 12 -0.5
v 0 12 0.5
v 0 11 0.5
v 0 11 -0.5
v -8 12 -0.5
v -8 10 -0.5
v -8 12 0.5
v -8 10 0.5
v -9 12 -0.5
v -9 12 0.5
v -9 10 0.5
v -9 10 -0.5
v -9 11 -0.5
v -9 11 0.5
v -10 12 -0.5
v -10 12 0.5
v -10 11 0.5
v -10 11 -0.5
v 9 11 -0.5
v 9 10 -0.5
v 9 11 0.5
v 9 10 0.5
v 8 10 0.5
v 8 10 -0.5
v 5 11 -0.5
v 5 9 -0.5
v 5 11 0.5
v 5 9 0.5
v 4 9 0.5
v 4 9 -0.5
v 3 10 -0.5
v 3 10 0.5
v 1 10 0.5
v 1 10 -0.5
v -7 11 -0.5
v -7 10 -0.5
v -7 11 0.5
v -7 10 0.5
v -8 11 -0.5
v -8 11 0.5
v -10 10 -0.5
v -10 10 0.5
v -11 11 -0.5
v -11 11 0.5
v -11 10 0.5
v -11 10 -0.5
v 10 10 -0.5
v 10 8 -0.5
v 10 10 0.5
v 10 8 0.5
v 9 8 0.5
v 9 8 -0.5
v 6 10 -0.5
v 6 8 -0.5
v 6 10 0.5
v 6 8 0.5
v 5 10 -0.5
v 5 10 0.5
v 5 8 0.5
v 5 8 -0.5
v 4 10 -0.5
v 4 8 -0.5
v 4 10 0.5
v 4 8 0.5
v 3 8 0.5
v 3 8 -0.5
v -6 10 -0.5
v -6 6 -0.5
v -6 10 0.5
v -6 6 0.5
v -7 6 0.5
v -7 6 -0.5
v -11 9 -0.5
v -11 9 0.5
v -12 10 -0.5
v -12 10 0.5
v -12 9 0.5
v -12 9 -0.5
v 3 9 -0.5
v 3 7 -0.5
v 3 9 0.5
v 3 7 0.5
v 2 9 -0.5
v 2 9 0.5
v 2 7 0.5
v 2 7 -0.5
v -12 7 -0.5
v -12 7 0.5
v -13 9 -0.5
v -13 9 0.5
v -13 7 0.5
v -13 7 -0.5
v 11 8 -0.5
v 11 6 -0.5
v 11 8 0.5
v 11 6 0.5
v 10 6 0.5
v 10 6 -0.5
v 7 8 -0.5
v 7 6 -0.5
v 7 8 0.5
v 7 6 0.5
v 6 6 0.5
v 6 6 -0.5
v 2 8 -0.5
v 2 6 -0.5
v 2 8 0.5
v 2 6 0.5
v 1 8 -0.5
v 1 8 0.5
v 1 6 0.5
v 1 6 -0.5
v -11 8 -0.5
v -11 6 -0.5
v -11 8 0.5
v -11 6 0.5
v -12 8 -0.5
v -12 8 0.5
v -12 6 0.5
v -12 6 -0.5
v 1 7 -0.5
v 1 5 -0.5
v 1 7 0.5
v 1 5 0.5
v 0 7 -0.5
v 0 7 0.5
v 0 5 0.5
v 0 5 -0.5
v 12 6 -0.5
v 12 -2 -0.5
v 12 6 0.5
v 12 -2 0.5
v 11 -2 0.5
v 11 -2 -0.5
v 8 6 -0.5
v 8 2 -0.5
v 8 6 0.5
v 8 2 0.5
v 7 2 0.5
v 7 2 -0.5
v 0 6 -0.5
v 0 4 -0.5
v 0 6 0.5
v 0 4 0.5
v -1 6 -0.5
v -1 6 0.5
v -1 4 0.5
v -1 4 -0.5
v -5 6 -0.5
v -5 5 -0.5
v -5 6 0.5
v -5 5 0.5
v -6 5 0.5
v -6 5 -0.5
v -7 5 -0.5
v -7 5 0.5
v -11 5 0.5
v -11 5 -0.5
v -1 5 -0.5
v -1 3 -0.5
v -1 5 0.5
v -1 3 0.5
v -2 5 -0.5
v -2 5 0.5
v -2 3 0.5
v -2 3 -0.5
v -4 5 -0.5
v -4 4 -0.5
v -4 5 0.5
v -4 4 0.5
v -5 4 0.5
v -5 4 -0.5
v -6 4 -0.5
v -6 4 0.5
v -7 4 0.5
v -7 4 -0.5
v -2 4 -0.5
v -2 2 -0.5
v -2 4 0.5
v -2 2 0.5
v -3 4 -0.5
v -3 4 0.5
v -3 2 0.5
v -3 2 -0.5
v -3 3 -0.5
v -3 3 0.5
v -4 3 0.5
v -4 3 -0.5
v -5 3 -0.5
v -5 3 0.5
v -6 3 0.5
v -6 3 -0.5
v -4 0 -0.5
v -4 0 0.5
v -5 0 0.5
v -5 0 -0.5
v 7 -2 -0.5
v 7 -2 0.5
v 6 2 -0.5
v 6 2 0.5
v 6 -2 0.5
v 6 -2 -0.5
v -1 2 -0.5
v -1 1 -0.5
v -1 2 0.5
v -1 1 0.5
v -2 1 0.5
v -2 1 -0.5
v -3 1 -0.5
v -3 1 0.5
v -4 2 -0.5
v -4 2 0.5
v -4 1 0.5
v -4 1 -0.5
v 0 1 -0.5
v 0 0 -0.5
v 0 1 0.5
v 0 0 0.5
v -1 0 0.5
v -1 0 -0.5
v -2 0 -0.5
v -2 0 0.5
v -3 0 0.5
v -3 0 -0.5
v -5 1 -0.5
v -5 -1 -0.5
v -5 1 0.5
v -5 -1 0.5
v -6 1 -0.5
v -6 1 0.5
v -6 -1 0.5
v -6 -1 -0.5
v 1 0 -0.5
v 1 -1 -0.5
v 1 0 0.5
v 1 -1 0.5
v 0 -1 0.5
v 0 -1 -0.5
v -1 -1 -0.5
v -1 -1 0.5
v -2 -1 0.5
v -2 -1 -0.5
v -6 0 -0.5
v -6 -2 -0.5
v -6 0 0.5
v -6 -2 0.5
v -7 0 -0.5
v -7 0 0.5
v -7 -2 0.5
v -7 -2 -0.5
v 2 -1 -0.5
v 2 -2 -0.5
v 2 -1 0.5
v 2 -2 0.5
v 1 -2 0.5
v 1 -2 -0.5
v 0 -2 -0.5
v 0 -2 0.5
v -1 -2 0.5
v -1 -2 -0.5
v -7 -1 -0.5
v -7 -3 -0.5
v -7 -1 0.5
v -7 -3 0.5
v -8 -1 -0.5
v -8 -1 0.5
v -8 -3 0.5
v -8 -3 -0.5
v -12 -1 -0.5
v -12 -2 -0.5
v -12 -1 0.5
v -12 -2 0.5
v -13 -1 -0.5
v -13 -1 0.5
v -13 -2 0.5
v -13 -2 -0.5
v 11 -4 -0.5
v 11 -4 0.5
v 10 -2 -0.5
v 10 -2 0.5
v 10 -4 0.5
v 10 -4 -0.5
v 6 -3 -0.5
v 6 -3 0.5
v 5 -2 -0.5
v 5 -2 0.5
v 5 -3 0.5
v 5 -3 -0.5
v 3 -2 -0.5
v 3 -3 -0.5
v 3 -2 0.5
v 3 -3 0.5
v 2 -3 0.5
v 2 -3 -0.5
v 1 -3 -0.5
v 1 -3 0.5
v 0 -3 0.5
v 0 -3 -0.5
v -8 -2 -0.5
v -8 -4 -0.5
v -8 -2 0.5
v -8 -4 0.5
v -9 -2 -0.5
v -9 -2 0.5
v -9 -4 0.5
v -9 -4 -0.5
v -11 -2 -0.5
v -11 -4 -0.5
v -11 -2 0.5
v -11 -4 0.5
v -12 -4 0.5
v -12 -4 -0.5
v -13 -3 -0.5
v -13 -3 0.5
v -14 -2 -0.5
v -14 -2 0.5
v -14 -3 0.5
v -14 -3 -0.5
v 5 -5 -0.5
v 5 -5 0.5
v 4 -3 -0.5
v 4 -3 0.5
v 4 -5 0.5
v 4 -5 -0.5
v 4 -4 -0.5
v 4 -4 0.5
v 3 -4 0.5
v 3 -4 -0.5
v 2 -4 -0.5
v 2 -4 0.5
v 1 -4 0.5
v 1 -4 -0.5
v -9 -3 -0.5
v -9 -5 -0.5
v -9 -3 0.5
v -9 -5 0.5
v -10 -3 -0.5
v -10 -3 0.5
v -10 -5 0.5
v -10 -5 -0.5
v -14 -7 -0.5
v -14 -7 0.5
v -15 -3 -0.5
v -15 -3 0.5
v -15 -7 0.5
v -15 -7 -0.5
v 10 -6 -0.5
v 10 -6 0.5
v 9 -4 -0.5
v 9 -4 0.5
v 9 -6 0.5
v 9 -6 -0.5
v 3 -6 -0.5
v 3 -6 0.5
v 2 -6 0.5
v 2 -6 -0.5
v -10 -4 -0.5
v -10 -7 -0.5
v -10 -4 0.5
v -10 -7 0.5
v -11 -7 0.5
v -11 -7 -0.5
v -12 -5 -0.5
v -12 -5 0.5
v -13 -4 -0.5
v -13 -4 0.5
v -13 -5 0.5
v -13 -5 -0.5
v 4 -6 -0.5
v 4 -6 0.5
v 3 -5 -0.5
v 3 -5 0.5
v -11 -5 -0.5
v -11 -6 -0.5
v -11 -5 0.5
v -11 -6 0.5
v -12 -6 0.5
v -12 -6 -0.5
v 9 -7 -0.5
v 9 -7 0.5
v 8 -6 -0.5
v 8 -6 0.5
v 8 -7 0.5
v 8 -7 -0.5
v 2 -7 -0.5
v 2 -7 0.5
v 1 -6 -0.5
v 1 -6 0.5
v 1 -7 0.5
v 1 -7 -0.5
v -9 -6 -0.5
v -9 -7 -0.5
v -9 -6 0.5
v -9 -7 0.5
v -10 -6 -0.5
v -10 -6 0.5
v 11 -7 -0.5
v 11 -9 -0.5
v 11 -7 0.5
v 11 -9 0.5
v 10 -7 -0.5
v 10 -7 0.5
v 10 -9 0.5
v 10 -9 -0.5
v 8 -8 -0.5
v 8 -8 0.5
v 7 -7 -0.5
v 7 -7 0.5
v 7 -8 0.5
v 7 -8 -0.5
v 1 -8 -0.5
v 1 -8 0.5
v -3 -7 -0.5
v -3 -7 0.5
v -3 -8 0.5
v -3 -8 -0.5
v -7 -7 -0.5
v -7 -8 -0.5
v -7 -7 0.5
v -7 -8 0.5
v -9 -8 0.5
v -9 -8 -0.5
v -13 -7 -0.5
v -13 -8 -0.5
v -13 -7 0.5
v -13 -8 0.5
v -14 -8 0.5
v -14 -8 -0.5
v 12 -8 -0.5
v 12 -10 -0.5
v 12 -8 0.5
v 12 -10 0.5
v 11 -8 -0.5
v 11 -8 0.5
v 11 -10 0.5
v 11 -10 -0.5
v 10 -8 -0.5
v 10 -10 -0.5
v 10 -8 0.5
v 10 -10 0.5
v 9 -8 -0.5
v 9 -8 0.5
v 9 -10 0.5
v 9 -10 -0.5
v 9 -9 -0.5
v 9 -9 0.5
v 8 -9 0.5
v 8 -9 -0.5
v 7 -9 -0.5
v 7 -9 0.5
v 6 -8 -0.5
v 6 -8 0.5
v 6 -9 0.5
v 6 -9 -0.5
v -3 -9 -0.5
v -3 -9 0.5
v -7 -9 0.5
v -7 -9 -0.5
v -12 -8 -0.5
v -12 -9 -0.5
v -12 -8 0.5
v -12 -9 0.5
v -13 -9 0.5
v -13 -9 -0.5
v 13 -9 -0.5
v 13 -10 -0.5
v 13 -9 0.5
v 13 -10 0.5
v 12 -9 -0.5
v 12 -9 0.5
v 8 -13 -0.5
v 8 -13 0.5
v 7 -13 0.5
v 7 -13 -0.5
v 6 -10 -0.5
v 6 -10 0.5
v 5 -9 -0.5
v 5 -9 0.5
v 5 -10 0.5
v 5 -10 -0.5
v -11 -9 -0.5
v -11 -10 -0.5
v -11 -9 0.5
v -11 -10 0.5
v -12 -10 0.5
v -12 -10 -0.5
v 14 -10 -0.5
v 14 -15 -0.5
v 14 -10 0.5
v 14 -15 0.5
v 13 -15 0.5
v 13 -15 -0.5
v 9 -11 -0.5
v 9 -11 0.5
v 8 -10 -0.5
v 8 -10 0.5
v 8 -11 0.5
v 8 -11 -0.5
v 5 -11 -0.5
v 5 -11 0.5
v 3 -10 -0.5
v 3 -10 0.5
v 3 -11 0.5
v 3 -11 -0.5
v -9 -10 -0.5
v -9 -11 -0.5
v -9 -10 0.5
v -9 -11 0.5
v -11 -11 0.5
v -11 -11 -0.5
v 7 -11 -0.5
v 7 -12 -0.5
v 7 -11 0.5
v 7 -12 0.5
v 6 -11 -0.5
v 6 -11 0.5
v 6 -12 0.5
v 6 -12 -0.5
v 3 -12 -0.5
v 3 -12 0.5
v 1 -11 -0.5
v 1 -11 0.5
v 1 -12 0.5
v 1 -12 -0.5
v -7 -11 -0.5
v -7 -12 -0.5
v -7 -11 0.5
v -7 -12 0.5
v -9 -12 0.5
v -9 -12 -0.5
v 9 -12 -0.5
v 9 -14 -0.5
v 9 -12 0.5
v 9 -14 0.5
v 8 -12 -0.5
v 8 -12 0.5
v 8 -14 0.5
v 8 -14 -0.5
v 1 -13 -0.5
v 1 -13 0.5
v -7 -13 0.5
v -7 -13 -0.5
v 13 -14 -0.5
v 13 -14 0.5
v 9 -15 0.5
v 9 -15 -0.5
v 6 13 -1
v 6 10 -1
v 6 13 1
v 6 10 1
v 5 13 -1
v 5 13 1
v 5 10 1
v 5 10 -1
v 5 12 -1
v 5 12 1
v 2 13 -1
v 2 13 1
v 2 12 1
v 2 12 -1
v 7 12 -1
v 7 11 -1
v 7 12 1
v 7 11 1
v 6 12 -1
v 6 12 1
v 6 11 1
v 6 11 -1
v 5 11 -1
v 5 11 1
v 4 12 -1
v 4 12 1
v 4 11 1
v 4 11 -1
v 3 12 -1
v 3 11 -1
v 3 12 1
v 3 11 1
v 1 12 -1
v 1 12 1
v 1 11 1
v 1 11 -1
v 8 11 -1
v 8 10 -1
v 8 11 1
v 8 10 1
v 7 10 1
v 7 10 -1
v 9 10 -1
v 9 8 -1
v 9 10 1
v 9 8 1
v 8 8 1
v 8 8 -1
v 7 8 -1
v 7 8 1
v 6 8 1
v 6 8 -1
v 10 8 -1
v 10 6 -1
v 10 8 1
v 10 6 1
v 9 6 1
v 9 6 -1
v 8 6 -1
v 8 6 1
v 7 6 1
v 7 6 -1
v 11 6 -1
v 11 -2 -1
v 11 6 1
v 11 -2 1
v 10 -2 1
v 10 -2 -1
v 9 2 -1
v 9 2 1
v 8 2 1
v 8 2 -1
v 8 -2 -1
v 8 -2 1
v 7 2 -1
v 7 2 1
v 7 -2 1
v 7 -2 -1
v 10 -4 -1
v 10 -4 1
v 9 -2 -1
v 9 -2 1
v 9 -4 1
v 9 -4 -1
v 7 -3 -1
v 7 -3 1
v 6 -2 -1
v 6 -2 1
v 6 -3 1
v 6 -3 -1
v -12 -2 -1
v -12 -4 -1
v -12 -2 1
v -12 -4 1
v -13 -2 -1
v -13 -2 1
v -13 -4 1
v -13 -4 -1
v 6 -5 -1
v 6 -5 1
v 5 -3 -1
v 5 -3 1
v 5 -5 1
v 5 -5 -1
v -13 -3 -1
v -13 -7 -1
v -13 -3 1
v -13 -7 1
v -14 -3 -1
v -14 -3 1
v -14 -7 1
v -14 -7 -1
v 9 -6 -1
v 9 -6 1
v 8 -4 -1
v 8 -4 1
v 8 -6 1
v 8 -6 -1
v 5 -6 -1
v 5 -6 1
v 4 -5 -1
v 4 -5 1
v 4 -6 1
v 4 -6 -1
v -12 -5 -1
v -12 -8 -1
v -12 -5 1
v -12 -8 1
v -13 -5 -1
v -13 -5 1
v -13 -8 1
v -13 -8 -1
v 8 -7 -1
v 8 -7 1
v 7 -6 -1
v 7 -6 1
v 7 -7 1
v 7 -7 -1
v 4 -7 -1
v 4 -7 1
v 2 -6 -1
v 2 -6 1
v 2 -7 1
v 2 -7 -1
v -11 -6 -1
v -11 -7 -1
v -11 -6 1
v -11 -7 1
v -12 -6 -1
v -12 -6 1
v -12 -7 1
v -12 -7 -1
v 7 -8 -1
v 7 -8 1
v 6 -7 -1
v 6 -7 1
v 6 -8 1
v 6 -8 -1
v 2 -8 -1
v 2 -8 1
v 1 -7 -1
v 1 -7 1
v 1 -8 1
v 1 -8 -1
v -9 -7 -1
v -9 -8 -1
v -9 -7 1
v -9 -8 1
v -11 -8 1
v -11 -8 -1
v 6 -9 -1
v 6 -9 1
v 5 -8 -1
v 5 -8 1
v 5 -9 1
v 5 -9 -1
v 1 -9 -1
v 1 -9 1
v -3 -8 -1
v -3 -8 1
v -3 -9 1
v -3 -9 -1
v -7 -8 -1
v -7 -9 -1
v -7 -8 1
v -7 -9 1
v -9 -9 1
v -9 -9 -1
v -11 -9 -1
v -11 -9 1
v -12 -9 1
v -12 -9 -1
v 5 -10 -1
v 5 -10 1
v 3 -9 -1
v 3 -9 1
v 3 -10 1
v 3 -10 -1
v -3 -10 -1
v -3 -10 1
v -7 -10 1
v -7 -10 -1
v -9 -10 -1
v -9 -10 1
v -11 -10 1
v -11 -10 -1
v 3 -11 -1
v 3 -11 1
v 1 -10 -1
v 1 -10 1
v 1 -11 1
v 1 -11 -1
v -7 -11 -1
v -7 -11 1
v -9 -11 1
v -9 -11 -1
v 1 -12 -1
v 1 -12 1
v -7 -12 1
v -7 -12 -1
v 8 9 -1
v 8 9 1
v 7 9 1
v 7 9 -1
v -10 10 -1
v -10 9 -1
v -10 10 1
v -10 9 1
v -11 10 -1
v -11 10 1
v -11 9 1
v -11 9 -1
v -9 9 -1
v -9 8 -1
v -9 9 1
v -9 8 1
v -10 8 1
v -10 8 -1
v -8 8 -1
v -8 7 -1
v -8 8 1
v -8 7 1
v -9 7 1
v -9 7 -1
v -7 7 -1
v -7 6 -1
v -7 7 1
v -7 6 1
v -8 6 1
v -8 6 -1
v -6 6 -1
v -6 5 -1
v -6 6 1
v -6 5 1
v -7 5 1
v -7 5 -1
v -5 5 -1
v -5 4 -1
v -5 5 1
v -5 4 1
v -6 4 1
v -6 4 -1
v -4 4 -1
v -4 3 -1
v -4 4 1
v -4 3 1
v -5 3 1
v -5 3 -1
v -3 3 -1
v -3 2 -1
v -3 3 1
v -3 2 1
v -4 2 1
v -4 2 -1
v -2 2 -1
v -2 1 -1
v -2 2 1
v -2 1 1
v -3 1 1
v -3 1 -1
v -1 1 -1
v -1 0 -1
v -1 1 1
v -1 0 1
v -2 0 1
v -2 0 -1
v 0 0 -1
v 0 -1 -1
v 0 0 1
v 0 -1 1
v -1 -1 1
v -1 -1 -1
v 1 -1 -1
v 1 -2 -1
v 1 -1 1
v 1 -2 1
v 0 -2 1
v 0 -2 -1
v 8 -3 -1
v 8 -3 1
v 2 -2 -1
v 2 -3 -1
v 2 -2 1
v 2 -3 1
v 1 -3 1
v 1 -3 -1
v 7 -5 -1
v 7 -5 1
v 3 -3 -1
v 3 -4 -1
v 3 -3 1
v 3 -4 1
v 2 -4 1
v 2 -4 -1
v 4 -4 -1
v 4 -4 1
v 3 -5 1
v 3 -5 -1
v 6 -6 -1
v 6 -6 1
v 5 -7 -1
v 5 -7 1
v 4 -8 -1
v 4 -8 1
v 8 -8 -1
v 8 -9 -1
v 8 -8 1
v 8 -9 1
v 7 -9 1
v 7 -9 -1
v 2 -9 -1
v 2 -9 1
v 9 -9 -1
v 9 -10 -1
v 9 -9 1
v 9 -10 1
v 8 -10 1
v 8 -10 -1
v 0 -9 -1
v 0 -10 -1
v 0 -9 1
v 0 -10 1
v 10 -10 -1
v 10 -11 -1
v 10 -10 1
v 10 -11 1
v 9 -11 1
v 9 -11 -1
v -5 -10 -1
v -5 -11 -1
v -5 -10 1
v -5 -11 1
v 11 -11 -1
v 11 -12 -1
v 11 -11 1
v 11 -12 1
v 10 -12 1
v 10 -12 -1
v 12 -12 -1
v 12 -13 -1
v 12 -12 1
v 12 -13 1
v 11 -13 1
v 11 -13 -1
v -9 11 -1
v -9 10 -1
v -9 11 1
v -9 10 1
v -10 11 -1
v -10 11 1
v -8 10 -1
v -8 9 -1
v -8 10 1
v -8 9 1
v -7 9 -1
v -7 8 -1
v -7 9 1
v -7 8 1
v -11 8 -1
v -11 8 1
v -12 9 -1
v -12 9 1
v -12 8 1
v -12 8 -1
v -10 7 -1
v -10 7 1
v -11 7 1
v -11 7 -1
v -9 6 -1
v -9 6 1
v -10 6 1
v -10 6 -1
v 11 -10 -1
v 11 -10 1
v 13 -11 -1
v 13 -12 -1
v 13 -11 1
v 13 -12 1
v 12 -11 -1
v 12 -11 1
v 9 -12 1
v 9 -12 -1
v 11 -14 -1
v 11 -14 1
v 10 -13 -1
v 10 -13 1
v 10 -14 1
v 10 -14 -1
v -7 9 -0.5
v -7 9 0.5
v -8 9 0.5
v -8 9 -0.5
v -10 7 -0.5
v -10 6 -0.5
v -10 7 0.5
v -10 6 0.5
v -11 7 -0.5
v -11 7 0.5
v 11 -9 -1
v 11 -9 1
v 10 -9 -1
v 10 -9 1
v 13 -11 -0.5
v 13 -11 0.5
v 12 -11 0.5
v 12 -11 -0.5
v 12 -10 -1
v 12 -10 1
v 8 -11 -1
v 8 -11 1
v 8 -12 1
v 8 -12 -1
v 9 -13 1
v 9 -13 -1
v 10 -13 -0.5
v 10 -14 -0.5
v 10 -13 0.5
v 10 -14 0.5
v 9 -13 -0.5
v 9 -13 0.5
v 13 -14 -1
v 13 -14 1
v 12 -14 1
v 12 -14 -1
v 10 4 -1
v 10 4 1
v 9 4 1
v 9 4 -1
v 9 -1 -1
v 9 -1 1
v 8 -1 1
v 8 -1 -1
v 7 -4 1
v 7 -4 -1
v 3 -8 -1
v 3 -8 1
v 2 -10 -1
v 2 -10 1
v 10 2 -1
v 10 2 1
v 9 -3 -1
v 9 -3 1
v 8 -5 -1
v 8 -5 1

vn 1 0 0
vn 0 1 0
vn 0 -1 0
vn -1 0 0
vn 0 0 -1
vn 0 0 1

vt -19.68504 19.68504
vt 19.68504 19.68504
vt -19.68504 -19.68504
vt 0 NaN
vt 0 0
vt 0 NaN
vt 0 NaN
vt 0 NaN
vt 0 NaN
vt 0 NaN
vt 19.68504 -19.68504
vt 0 NaN
vt 0 NaN
vt 0 NaN
vt 0 NaN
vt 0 NaN
vt 0 NaN
vt 0 NaN
vt 0 NaN
vt 0 NaN
vt 0 NaN
vt 0 NaN
vt 0 NaN
vt 0 NaN
vt 0 NaN
vt 0 NaN
vt 0 NaN
vt 0 NaN
vt 0 NaN
vt 0 NaN
vt 0 NaN
vt 0 NaN
vt 0 NaN
vt 0 NaN
vt 0 NaN
vt 0 NaN
vt 0 NaN
vt 0 NaN
vt 0 NaN
vt 0 NaN
vt 0 NaN
vt 0 NaN
vt 0 NaN
vt 0 NaN
vt 0 NaN
vt 0 NaN
vt 0 NaN
vt 0 NaN
vt 0 NaN
vt 0 NaN
vt 0 NaN
vt 0 NaN
vt 0 NaN
vt 0 NaN
vt 0 NaN
vt 0 NaN
vt 0 NaN
vt 0 NaN
vt 0 NaN
vt 0 NaN
vt 0 NaN
vt 0 NaN
vt 0 NaN
vt 0 NaN
vt 0 NaN
vt 0 NaN
vt 0 NaN
vt 0 NaN
vt 0 NaN
vt 0 NaN
vt 0 NaN
vt 0 NaN
vt 0 NaN
vt 0 NaN
vt 0 NaN
vt 0 NaN
vt 0 NaN
vt 0 NaN
vt 0 NaN
vt 0 NaN
vt 0 NaN
vt 0 NaN
vt 0 NaN
vt 0 NaN
vt 0 NaN
vt 0 NaN
vt 0 NaN
vt 0 NaN
vt 0 NaN
vt 0 NaN
vt 0 NaN
vt 0 NaN
vt 0 NaN
vt 0 NaN
vt 0 NaN
vt 0 NaN
vt 0 NaN
vt 0 NaN
vt 0 NaN
vt 0 NaN
vt 0 NaN
vt 0 NaN
vt 0 NaN
vt 0 NaN
vt 0 NaN
vt 0 NaN
vt 0 NaN
vt 0 NaN
vt 0 NaN
vt 0 NaN
vt 0 NaN
vt 0 NaN
vt 0 NaN
vt 0 NaN
vt 0 NaN
vt 0 NaN
vt 0 NaN
vt 0 NaN
vt 0 NaN
vt 0 NaN
vt 0 NaN
vt 0 NaN
vt 0 NaN
vt 0 NaN
vt 0 NaN
vt 0 NaN
vt 0 NaN
vt 0 NaN
vt 0 NaN
vt 0 NaN
vt 0 NaN
vt 0 NaN
vt 0 NaN
vt 0 NaN
vt 0 NaN
vt 0 NaN
vt 0 NaN
vt 0 NaN
vt 0 NaN
vt 0 NaN
vt 0 NaN
vt 0 NaN
vt 0 NaN
vt 0 NaN
vt 0 NaN
vt 0 NaN
vt 0 NaN
vt 0 NaN
vt 0 NaN
vt 0 NaN
vt 0 NaN
vt 0 NaN
vt 0 NaN
vt 0 NaN
vt 0 NaN
vt 0 NaN
vt 0 NaN
vt 0 NaN
vt 0 NaN
vt 0 NaN
vt 0 NaN
vt 0 NaN
vt 0 NaN
vt 0 NaN
vt 0 NaN
vt 0 NaN
vt 0 NaN
vt 0 NaN
vt 0 NaN
vt 0 NaN
vt 0 NaN
vt 0 NaN
vt 0 NaN
vt 0 NaN
vt 0 NaN
vt 0 NaN
vt 0 NaN
vt 0 NaN
vt 0 NaN
vt 0 NaN
vt 0 NaN
vt 0 NaN
vt 0 NaN
vt 0 NaN
vt 0 NaN
vt 0 NaN
vt 0 NaN
vt 0 NaN
vt 0 NaN
vt 0 NaN
vt 0 NaN
vt 0 NaN
vt 0 NaN
vt 0 NaN
vt 0 NaN
vt 0 NaN
vt 0 NaN
vt 0 NaN
vt 0 NaN
vt 0 NaN
vt 0 NaN
vt 0 NaN
vt 0 NaN
vt 0 NaN
vt 0 NaN
vt 0 NaN
vt 0 NaN
vt 0 NaN
vt 0 NaN
vt 0 NaN
vt 0 NaN
vt 0 NaN
vt 0 NaN
vt 0 NaN
vt 0 NaN
vt 0 NaN
vt 0 NaN
vt 0 NaN
vt 0 NaN
vt 0 NaN
vt 0 NaN
vt 0 NaN
vt 0 NaN
vt 0 NaN
vt 0 NaN
vt 0 NaN
vt 0 NaN
vt 0 NaN
vt 0 NaN
vt 0 NaN
vt 0 NaN
vt 0 NaN
vt 0 NaN
vt 0 NaN
vt 0 NaN
vt 0 NaN
vt 0 NaN
vt 0 NaN
vt 0 NaN
vt 0 NaN
vt 0 NaN
vt 0 NaN
vt 0 NaN
vt 0 NaN
vt 0 NaN
vt 0 NaN
vt 0 NaN
vt 0 NaN
vt 0 NaN
vt 0 NaN
vt 0 NaN
vt 0 NaN
vt 0 NaN
vt 0 NaN
vt 0 NaN
vt 0 NaN
vt 0 NaN
vt 0 NaN
vt 0 NaN
vt 0 NaN
vt 0 NaN
vt 0 NaN
vt 0 NaN
vt 0 NaN
vt 0 NaN
vt 0 NaN
vt 0 NaN
vt 0 NaN
vt 0 NaN
vt 0 NaN
vt 0 NaN
vt 0 NaN
vt 0 NaN
vt 0 NaN
vt 0 NaN
vt 0 NaN
vt 0 NaN
vt 0 NaN
vt 0 NaN
vt 0 NaN
vt 0 NaN
vt 0 NaN
vt 0 NaN
vt 0 NaN
vt 0 NaN
vt 0 NaN
vt 0 NaN
vt 0 NaN
vt 0 NaN
vt 0 NaN
vt 0 NaN
vt 0 NaN
vt 0 NaN
vt 0 NaN
vt 0 NaN
vt 0 NaN
vt 0 NaN
vt 0 NaN
vt 0 NaN
vt 0 NaN
vt 0 NaN
vt 0 NaN
vt 0 NaN
vt 0 NaN
vt 0 NaN
vt 0 NaN
vt 0 NaN
vt 0 NaN
vt 0 NaN
vt 0 NaN
vt 0 NaN
vt 0 NaN
vt 0 NaN
vt 0 NaN
vt 0 NaN
vt 0 NaN
vt 0 NaN
vt 0 NaN
vt 0 NaN
vt 0 NaN
vt 0 NaN
vt 0 NaN
vt 0 NaN
vt 0 NaN
vt 0 NaN
vt 0 NaN
vt 0 NaN
vt 0 NaN
vt 0 NaN
vt 0 NaN
vt 0 NaN
vt 0 NaN
vt 0 NaN
vt 0 NaN
vt 0 NaN
vt 0 NaN
vt 0 NaN
vt 0 NaN
vt 0 NaN
vt 0 NaN
vt 0 NaN
vt 0 NaN
vt 0 NaN
vt 0 NaN
vt 0 NaN
vt 0 NaN
vt 0 NaN
vt 0 NaN
vt 0 NaN
vt 0 NaN
vt 0 NaN
vt 0 NaN
vt 0 NaN
vt 0 NaN
vt 0 NaN
vt 0 NaN
vt 0 NaN
vt 0 NaN
vt 0 NaN
vt 0 NaN
vt 0 NaN
vt 0 NaN
vt 0 NaN
vt 0 NaN
vt 0 NaN
vt 0 NaN
vt 0 NaN
vt 0 NaN
vt 0 NaN
vt 0 NaN
vt 0 NaN
vt 0 NaN
vt 0 NaN
vt 0 NaN
vt 0 NaN
vt 0 NaN
vt 0 NaN
vt 0 NaN
vt 0 NaN
vt 0 NaN
vt 0 NaN
vt 0 NaN
vt 0 NaN
vt 0 NaN
vt 0 NaN
vt 0 NaN
vt 0 NaN
vt 0 NaN
vt 0 NaN
vt 0 NaN
vt 0 NaN
vt 0 NaN
vt 0 NaN
vt 0 NaN
vt 0 NaN
vt 0 NaN
vt 0 NaN
vt 0 NaN
vt 0 NaN
vt 0 NaN
vt 0 NaN
vt 0 NaN
vt 0 NaN
vt 0 NaN
vt 0 NaN
vt 0 NaN
vt 0 NaN
vt 0 NaN
vt 0 NaN
vt 0 NaN
vt 0 NaN
vt 0 NaN
vt 0 NaN
vt 0 NaN
vt 0 NaN
vt 0 NaN
vt 0 NaN
vt 0 NaN
vt 0 NaN
vt 0 NaN
vt 0 NaN
vt 0 NaN
vt 0 NaN
vt 0 NaN
vt 0 NaN
vt 0 NaN
vt 0 NaN
vt 0 NaN
vt 0 NaN
vt 0 NaN
vt 0 NaN
vt 0 NaN
vt 0 NaN
vt 0 NaN
vt 0 NaN
vt 0 NaN
vt 0 NaN
vt 0 NaN
vt 0 NaN
vt 0 NaN
vt 0 NaN
vt 0 NaN
vt 0 NaN
vt 0 NaN
vt 0 NaN
vt 0 NaN
vt 0 NaN
vt 0 NaN
vt 0 NaN
vt 0 NaN
vt 0 NaN
vt 0 NaN
vt 0 NaN
vt 0 NaN
vt 0 NaN
vt 0 NaN
vt 0 NaN
vt 0 NaN
vt 0 NaN
vt 0 NaN
vt 0 NaN
vt 0 NaN
vt 0 NaN
vt 0 NaN
vt 0 NaN
vt 0 NaN
vt 0 NaN
vt 0 NaN
vt 0 NaN
vt 0 NaN
vt 0 NaN
vt 0 NaN
vt 0 NaN
vt 0 NaN
vt 0 NaN
vt 0 NaN
vt 0 NaN
vt 0 NaN
vt 0 NaN
vt 0 NaN
vt 0 NaN
vt 0 NaN
vt 0 NaN
vt 0 NaN
vt 0 NaN
vt 0 NaN
vt 0 NaN
vt 0 NaN
vt 0 NaN
vt 0 NaN
vt 0 NaN
vt 0 NaN
vt 0 NaN
vt 0 NaN
vt 0 NaN
vt 0 NaN
vt 0 NaN
vt 0 NaN
vt 0 NaN
vt 0 NaN
vt 0 NaN
vt 0 NaN
vt 0 NaN
vt 0 NaN
vt 0 NaN
vt 0 NaN
vt 0 NaN
vt 0 NaN
vt 0 NaN
vt 0 NaN
vt 0 NaN
vt 0 NaN
vt 0 NaN
vt 0 NaN
vt 0 NaN
vt 0 NaN
vt 0 NaN
vt 0 NaN
vt 0 NaN
vt 0 NaN
vt 0 NaN
vt 0 NaN
vt 0 NaN
vt 0 NaN
vt 0 NaN
vt 0 NaN
vt 0 NaN
vt 0 NaN
vt 0 NaN
vt 0 NaN
vt 0 NaN
vt 0 NaN
vt 0 NaN
vt 0 NaN
vt 0 NaN
vt 0 NaN
vt 0 NaN
vt 0 NaN
vt 0 NaN
vt 0 NaN
vt 0 NaN
vt 0 NaN
vt 0 NaN
vt 0 NaN
vt 0 NaN
vt 0 NaN
vt 0 NaN
vt 0 NaN
vt 0 NaN
vt 0 NaN
vt 0 NaN
vt 0 NaN
vt 0 NaN
vt 0 NaN
vt 0 NaN
vt 0 NaN
vt 0 NaN
vt 0 NaN
vt 0 NaN
vt 0 NaN
vt 0 NaN
vt 0 NaN
vt 0 NaN
vt 0 NaN
vt 0 NaN
vt 0 NaN
vt 0 NaN
vt 0 NaN
vt 0 NaN
vt 0 NaN
vt 0 NaN
vt 0 NaN
vt 0 NaN
vt 0 NaN
vt 0 NaN
vt 0 NaN
vt 0 NaN
vt 0 NaN
vt 0 NaN
vt 0 NaN
vt 0 NaN
vt 0 NaN
vt 0 NaN
vt 0 NaN
vt 0 NaN
vt 0 NaN
vt 0 NaN
vt 0 NaN
vt 0 NaN
vt 0 NaN
vt 0 NaN
vt 0 NaN
vt 0 NaN
vt 0 NaN
vt 0 NaN
vt 0 NaN
vt 0 NaN
vt 0 NaN
vt 0 NaN
vt 0 NaN
vt 0 NaN
vt 0 NaN
vt 0 NaN
vt 0 NaN
vt 0 NaN
vt 0 NaN
vt 0 NaN
vt 0 NaN
vt 0 NaN
vt 0 NaN
vt 0 NaN
vt 0 NaN
vt 0 NaN
vt 0 NaN
vt 0 NaN
vt 0 NaN
vt 0 NaN
vt 0 NaN
vt 0 NaN
vt 0 NaN
vt 0 NaN
vt 0 NaN
vt 0 NaN
vt 0 NaN
vt 0 NaN
vt 0 NaN
vt 0 NaN
vt 0 NaN
vt 0 NaN
vt 0 NaN
vt 0 NaN
vt 0 NaN
vt 0 NaN
vt 0 NaN
vt 0 NaN
vt 0 NaN
vt 0 NaN
vt 0 NaN
vt 0 NaN
vt 0 NaN
vt 0 NaN
vt 0 NaN
vt 0 NaN
vt 0 NaN
vt 0 NaN
vt 0 NaN
vt 0 NaN
vt 0 NaN
vt 0 NaN
vt 0 NaN
vt 0 NaN
vt 0 NaN
vt 0 NaN
vt 0 NaN
vt 0 NaN
vt 0 NaN
vt 0 NaN
vt 0 NaN
vt 0 NaN
vt 0 NaN
vt 0 NaN
vt 0 NaN
vt 0 NaN
vt 0 NaN
vt 0 NaN
vt 0 NaN
vt 0 NaN
vt 0 NaN
vt 0 NaN
vt 0 NaN
vt 0 NaN
vt 0 NaN
vt 0 NaN
vt 0 NaN
vt 0 NaN
vt 0 NaN
vt 0 NaN
vt 0 NaN
vt 0 NaN
vt 0 NaN
vt 0 NaN
vt 0 NaN
vt 0 NaN
vt 0 NaN
vt 0 NaN
vt 0 NaN
vt 0 NaN
vt 0 NaN
vt 0 NaN
vt 0 NaN
vt 0 NaN
vt 0 NaN
vt 0 NaN
vt 0 NaN
vt 0 NaN
vt 0 NaN
vt 0 NaN
vt 0 NaN
vt 0 NaN
vt 0 NaN
vt 0 NaN
vt 0 NaN
vt 0 NaN
vt 0 NaN
vt 0 NaN
vt 0 NaN
vt 0 NaN
vt 0 NaN
vt 0 NaN
vt 0 NaN
vt 0 NaN
vt 0 NaN
vt 0 NaN
vt 0 NaN
vt 0 NaN
vt 0 NaN
vt 0 NaN
vt 0 NaN
vt 0 NaN
vt 0 NaN
vt 0 NaN
vt 0 NaN
vt 0 NaN
vt 0 NaN
vt 0 NaN
vt 0 NaN
vt 0 NaN
vt 0 NaN
vt 0 NaN
vt 0 NaN
vt 0 NaN
vt 0 NaN
vt 0 NaN
vt 0 NaN
vt 0 NaN
vt 0 NaN
vt 0 NaN
vt 0 NaN
vt 0 NaN
vt 0 NaN
vt 0 NaN
vt 0 NaN
vt 0 NaN
vt 0 NaN
vt 0 NaN
vt 0 NaN
vt 0 NaN
vt 0 NaN
vt 0 NaN
vt 0 NaN
vt 0 NaN
vt 0 NaN
vt 0 NaN
vt 0 NaN
vt 0 NaN
vt 0 NaN
vt 0 NaN
vt 0 NaN
vt 0 NaN
vt 0 NaN
vt 0 NaN
vt 0 NaN
vt 0 NaN
vt 0 NaN
vt 0 NaN
vt 0 NaN
vt 0 NaN
vt 0 NaN
vt 0 NaN
vt 0 NaN
vt 0 NaN
vt 0 NaN
vt 0 NaN
vt 0 NaN
vt 0 NaN
vt 0 NaN
vt 0 NaN
vt 0 NaN
vt 0 NaN
vt 0 NaN
vt 0 NaN
vt 0 NaN
vt 0 NaN
vt 0 NaN
vt 0 NaN
vt 0 NaN
vt 0 NaN
vt 0 NaN
vt 0 NaN
vt 0 NaN
vt 0 NaN
vt 0 NaN
vt 0 NaN
vt 0 NaN
vt 0 NaN
vt 0 NaN
vt 0 NaN
vt 0 NaN
vt 0 NaN
vt 0 NaN
vt 0 NaN
vt 0 NaN
vt 0 NaN
vt 0 NaN
vt 0 NaN
vt 0 NaN
vt 0 NaN
vt 0 NaN
vt 0 NaN
vt 0 NaN
vt 0 NaN
vt 0 NaN
vt 0 NaN
vt 0 NaN
vt 0 NaN
vt 0 NaN
vt 0 NaN
vt 0 NaN
vt 0 NaN
vt 0 NaN
vt 0 NaN
vt 0 NaN
vt 0 NaN
vt 0 NaN
vt 0 NaN
vt 0 NaN
vt 0 NaN
vt 0 NaN
vt 0 NaN
vt 0 NaN
vt 0 NaN
vt 0 NaN
vt 0 NaN
vt 0 NaN
vt 0 NaN
vt 0 NaN
vt 0 NaN
vt 0 NaN
vt 0 NaN
vt 0 NaN
vt 0 NaN
vt 0 NaN
vt 0 NaN
vt 0 NaN
vt 0 NaN
vt 0 NaN
vt 0 NaN
vt 0 NaN
vt 0 NaN
vt 0 NaN
vt 0 NaN
vt 0 NaN
vt 0 NaN
vt 0 NaN
vt 0 NaN
vt 0 NaN
vt 0 NaN
vt 0 NaN
vt 0 NaN
vt 0 NaN
vt 0 NaN
vt 0 NaN
vt 0 NaN
vt 0 NaN
vt 0 NaN
vt 0 NaN
vt 0 NaN
vt 0 NaN
vt 0 NaN
vt 0 NaN
vt 0 NaN
vt 0 NaN
vt 0 NaN
vt 0 NaN
vt 0 NaN
vt 0 NaN
vt 0 NaN
vt 0 NaN
vt 0 NaN
vt 0 NaN
vt 0 NaN
vt 0 NaN
vt 0 NaN
vt 0 NaN
vt 0 NaN
vt 0 NaN
vt 0 NaN
vt 0 NaN
vt 0 NaN
vt 0 NaN
vt 0 NaN
vt 0 NaN
vt 0 NaN
vt 0 NaN
vt 0 NaN
vt 0 NaN
vt 0 NaN
vt 0 NaN
vt 0 NaN
vt 0 NaN
vt 0 NaN
vt 0 NaN
vt 0 NaN
vt 0 NaN
vt 0 NaN
vt 0 NaN
vt 0 NaN
vt 0 NaN
vt 0 NaN
vt 0 NaN
vt 0 NaN
vt 0 NaN
vt 0 NaN
vt 0 NaN
vt 0 NaN
vt 0 NaN
vt 0 NaN
vt 0 NaN
vt 0 NaN
vt 0 NaN
vt 0 NaN
vt 0 NaN
vt 0 NaN
vt 0 NaN
vt 0 NaN
vt 0 NaN
vt 0 NaN
vt 0 NaN
vt 0 NaN
vt 0 NaN
vt 0 NaN
vt 0 NaN
vt 0 NaN
vt 0 NaN
vt 0 NaN
vt 0 NaN
vt 0 NaN
vt 0 NaN
vt 0 NaN
vt 0 NaN
vt 0 NaN
vt 0 NaN
vt 0 NaN
vt 0 NaN
vt 0 NaN
vt 0 NaN
vt 0 NaN
vt 0 NaN
vt 0 NaN
vt 0 NaN
vt 0 NaN
vt 0 NaN
vt 0 NaN
vt 0 NaN
vt 0 NaN
vt 0 NaN
vt 0 NaN
vt 0 NaN
vt 0 NaN
vt 0 NaN
vt 0 NaN
vt 0 NaN
vt 0 NaN
vt 0 NaN
vt 0 NaN
vt 0 NaN
vt 0 NaN
vt 0 NaN
vt 0 NaN
vt 0 NaN
vt 0 NaN
vt 0 NaN
vt 0 NaN
vt 0 NaN
vt 0 NaN
vt 0 NaN
vt 0 NaN
vt 0 NaN
vt 0 NaN
vt 0 NaN
vt 0 NaN
vt 0 NaN
vt 0 NaN
vt 0 NaN
vt 0 NaN
vt 0 NaN
vt 0 NaN
vt 0 NaN
vt 0 NaN
vt 0 NaN

usemtl color1

f 3/3/1 2/2/1 1/1/1
f 2/3/1 3/2/1 4/1/1
f 5/3/2 3/2/2 1/1/2
f 3/3/2 5/2/2 6/1/2
f 7/5/3 2/5/3 4/4/3
f 2/5/3 7/5/3 8/6/3
f 7/5/4 5/5/4 8/7/4
f 5/5/4 7/5/4 6/8/4
f 5/5/5 2/5/5 8/9/5
f 2/5/5 5/5/5 1/10/5
f 3/2/6 7/3/6 4/11/6
f 7/3/6 3/2/6 6/1/6
f 3/3/1 2/2/1 1/1/1
f 2/3/1 3/2/1 4/1/1
f 9/3/2 3/2/2 1/1/2
f 3/3/2 9/2/2 10/1/2
f 11/5/3 2/5/3 4/4/3
f 2/5/3 11/5/3 12/12/3
f 11/5/4 9/5/4 12/13/4
f 9/5/4 11/5/4 10/14/4
f 9/5/5 2/5/5 12/15/5
f 2/5/5 9/5/5 1/10/5
f 3/2/6 11/3/6 4/11/6
f 11/3/6 3/2/6 10/1/6
f 15/3/1 14/2/1 13/1/1
f 14/3/1 15/2/1 16/1/1
f 2/3/2 15/2/2 13/1/2
f 15/3/2 2/2/2 4/1/2
f 17/5/3 14/5/3 16/16/3
f 14/5/3 17/5/3 18/17/3
f 17/5/4 2/5/4 18/18/4
f 2/5/4 17/5/4 4/19/4
f 2/5/5 14/5/5 18/20/5
f 14/5/5 2/5/5 13/21/5
f 15/2/6 17/3/6 16/11/6
f 17/3/6 15/2/6 4/1/6
f 7/3/1 19/2/1 8/1/1
f 19/3/1 7/2/1 20/1/1
f 21/3/2 7/2/2 8/1/2
f 7/3/2 21/2/2 22/1/2
f 23/5/3 19/5/3 20/22/3
f 19/5/3 23/5/3 24/23/3
f 23/5/4 21/5/4 24/24/4
f 21/5/4 23/5/4 22/25/4
f 21/5/5 19/5/5 24/26/5
f 19/5/5 21/5/5 8/9/5
f 7/2/6 23/3/6 20/11/6
f 23/3/6 7/2/6 22/1/6
f 27/3/1 26/2/1 25/1/1
f 26/3/1 27/2/1 28/1/1
f 14/3/2 27/2/2 25/1/2
f 27/3/2 14/2/2 16/1/2
f 29/5/3 26/5/3 28/27/3
f 26/5/3 29/5/3 30/28/3
f 29/5/4 14/5/4 30/29/4
f 14/5/4 29/5/4 16/30/4
f 14/5/5 26/5/5 30/31/5
f 26/5/5 14/5/5 25/32/5
f 27/2/6 29/3/6 28/11/6
f 29/3/6 27/2/6 16/1/6
f 33/3/1 32/2/1 31/1/1
f 32/3/1 33/2/1 34/1/1
f 35/3/2 33/2/2 31/1/2
f 33/3/2 35/2/2 36/1/2
f 37/5/3 32/5/3 34/33/3
f 32/5/3 37/5/3 38/34/3
f 37/5/4 35/5/4 38/35/4
f 35/5/4 37/5/4 36/36/4
f 35/5/5 32/5/5 38/37/5
f 32/5/5 35/5/5 31/38/5
f 33/2/6 37/3/6 34/11/6
f 37/3/6 33/2/6 36/1/6
f 23/3/1 39/2/1 24/1/1
f 39/3/1 23/2/1 40/1/1
f 41/3/2 23/2/2 24/1/2
f 23/3/2 41/2/2 42/1/2
f 43/5/3 39/5/3 40/39/3
f 39/5/3 43/5/3 44/40/3
f 43/5/4 41/5/4 44/41/4
f 41/5/4 43/5/4 42/42/4
f 41/5/5 39/5/5 44/43/5
f 39/5/5 41/5/5 24/26/5
f 23/2/6 43/3/6 40/11/6
f 43/3/6 23/2/6 42/1/6
f 47/3/1 46/2/1 45/1/1
f 46/3/1 47/2/1 48/1/1
f 49/3/2 47/2/2 45/1/2
f 47/3/2 49/2/2 50/1/2
f 51/5/3 46/5/3 48/44/3
f 46/5/3 51/5/3 52/45/3
f 51/5/4 49/5/4 52/46/4
f 49/5/4 51/5/4 50/47/4
f 49/5/5 46/5/5 52/48/5
f 46/5/5 49/5/5 45/49/5
f 47/2/6 51/3/6 48/11/6
f 51/3/6 47/2/6 50/1/6
f 50/3/1 53/2/1 49/1/1
f 53/3/1 50/2/1 54/1/1
f 55/3/2 50/2/2 49/1/2
f 50/3/2 55/2/2 56/1/2
f 57/5/3 53/5/3 54/50/3
f 53/5/3 57/5/3 58/51/3
f 57/5/4 55/5/4 58/52/4
f 55/5/4 57/5/4 56/53/4
f 55/5/5 53/5/5 58/54/5
f 53/5/5 55/5/5 49/5/5
f 50/2/6 57/3/6 54/11/6
f 57/3/6 50/2/6 56/1/6
f 61/3/1 60/2/1 59/1/1
f 60/3/1 61/2/1 62/1/1
f 26/3/2 61/2/2 59/1/2
f 61/3/2 26/2/2 28/1/2
f 63/5/3 60/5/3 62/55/3
f 60/5/3 63/5/3 64/56/3
f 63/5/4 26/5/4 64/57/4
f 26/5/4 63/5/4 28/58/4
f 26/5/5 60/5/5 64/59/5
f 60/5/5 26/5/5 59/60/5
f 61/2/6 63/3/6 62/11/6
f 63/3/6 61/2/6 28/1/6
f 67/3/1 66/2/1 65/1/1
f 66/3/1 67/2/1 68/1/1
f 32/3/2 67/2/2 65/1/2
f 67/3/2 32/2/2 34/1/2
f 69/5/3 66/5/3 68/61/3
f 66/5/3 69/5/3 70/62/3
f 69/5/4 32/5/4 70/63/4
f 32/5/4 69/5/4 34/64/4
f 32/5/5 66/5/5 70/65/5
f 66/5/5 32/5/5 65/66/5
f 67/2/6 69/3/6 68/11/6
f 69/3/6 67/2/6 34/1/6
f 37/3/1 71/2/1 38/1/1
f 71/3/1 37/2/1 72/1/1
f 39/3/2 37/2/2 38/1/2
f 37/3/2 39/2/2 40/1/2
f 73/5/3 71/5/3 72/67/3
f 71/5/3 73/5/3 74/68/3
f 73/5/4 39/5/4 74/69/4
f 39/5/4 73/5/4 40/70/4
f 39/5/5 71/5/5 74/71/5
f 71/5/5 39/5/5 38/37/5
f 37/2/6 73/3/6 72/11/6
f 73/3/6 37/2/6 40/1/6
f 77/3/1 76/2/1 75/1/1
f 76/3/1 77/2/1 78/1/1
f 79/3/2 77/2/2 75/1/2
f 77/3/2 79/2/2 80/1/2
f 48/44/3 76/5/3 78/72/3
f 76/5/3 48/44/3 46/5/3
f 48/5/4 79/5/4 46/73/4
f 79/5/4 48/5/4 80/74/4
f 79/5/5 76/5/5 46/5/5
f 76/5/5 79/5/5 75/75/5
f 77/2/6 48/3/6 78/11/6
f 48/3/6 77/2/6 80/1/6
f 57/3/1 81/2/1 58/1/1
f 81/3/1 57/2/1 82/1/1
f 83/3/2 57/2/2 58/1/2
f 57/3/2 83/2/2 84/1/2
f 85/5/3 81/5/3 82/76/3
f 81/5/3 85/5/3 86/77/3
f 85/5/4 83/5/4 86/78/4
f 83/5/4 85/5/4 84/79/4
f 83/5/5 81/5/5 86/80/5
f 81/5/5 83/5/5 58/54/5
f 57/2/6 85/3/6 82/11/6
f 85/3/6 57/2/6 84/1/6
f 89/3/1 88/2/1 87/1/1
f 88/3/1 89/2/1 90/1/1
f 60/3/2 89/2/2 87/1/2
f 89/3/2 60/2/2 62/1/2
f 91/5/3 88/5/3 90/81/3
f 88/5/3 91/5/3 92/82/3
f 91/5/4 60/5/4 92/83/4
f 60/5/4 91/5/4 62/84/4
f 60/5/5 88/5/5 92/85/5
f 88/5/5 60/5/5 87/86/5
f 89/2/6 91/3/6 90/11/6
f 91/3/6 89/2/6 62/1/6
f 95/3/1 94/2/1 93/1/1
f 94/3/1 95/2/1 96/1/1
f 97/3/2 95/2/2 93/1/2
f 95/3/2 97/2/2 98/1/2
f 99/5/3 94/5/3 96/87/3
f 94/5/3 99/5/3 100/88/3
f 99/5/4 97/5/4 100/89/4
f 97/5/4 99/5/4 98/90/4
f 97/5/5 94/5/5 100/91/5
f 94/5/5 97/5/5 93/92/5
f 95/2/6 99/3/6 96/11/6
f 99/3/6 95/2/6 98/1/6
f 103/3/1 102/2/1 101/1/1
f 102/3/1 103/2/1 104/1/1
f 71/3/2 103/2/2 101/1/2
f 103/3/2 71/2/2 72/1/2
f 105/5/3 102/5/3 104/93/3
f 102/5/3 105/5/3 106/94/3
f 105/5/4 71/5/4 106/95/4
f 71/5/4 105/5/4 72/96/4
f 71/5/5 102/5/5 106/97/5
f 102/5/5 71/5/5 101/98/5
f 103/2/6 105/3/6 104/11/6
f 105/3/6 103/2/6 72/1/6
f 109/3/1 108/2/1 107/1/1
f 108/3/1 109/2/1 110/1/1
f 76/3/2 109/2/2 107/1/2
f 109/3/2 76/2/2 78/1/2
f 111/5/3 108/5/3 110/99/3
f 108/5/3 111/5/3 112/100/3
f 111/5/4 76/5/4 112/101/4
f 76/5/4 111/5/4 78/102/4
f 76/5/5 108/5/5 112/103/5
f 108/5/5 76/5/5 107/104/5
f 109/2/6 111/3/6 110/11/6
f 111/3/6 109/2/6 78/1/6
f 85/3/1 113/2/1 86/1/1
f 113/3/1 85/2/1 114/1/1
f 115/3/2 85/2/2 86/1/2
f 85/3/2 115/2/2 116/1/2
f 117/5/3 113/5/3 114/105/3
f 113/5/3 117/5/3 118/106/3
f 117/5/4 115/5/4 118/107/4
f 115/5/4 117/5/4 116/108/4
f 115/5/5 113/5/5 118/109/5
f 113/5/5 115/5/5 86/80/5
f 85/2/6 117/3/6 114/11/6
f 117/3/6 85/2/6 116/1/6
f 121/3/1 120/2/1 119/1/1
f 120/3/1 121/2/1 122/1/1
f 123/3/2 121/2/2 119/1/2
f 121/3/2 123/2/2 124/1/2
f 125/5/3 120/5/3 122/110/3
f 120/5/3 125/5/3 126/111/3
f 125/5/4 123/5/4 126/112/4
f 123/5/4 125/5/4 124/113/4
f 123/5/5 120/5/5 126/114/5
f 120/5/5 123/5/5 119/115/5
f 121/2/6 125/3/6 122/11/6
f 125/3/6 121/2/6 124/1/6
f 117/3/1 127/2/1 118/1/1
f 127/3/1 117/2/1 128/1/1
f 129/3/2 117/2/2 118/1/2
f 117/3/2 129/2/2 130/1/2
f 131/5/3 127/5/3 128/116/3
f 127/5/3 131/5/3 132/117/3
f 131/5/4 129/5/4 132/118/4
f 129/5/4 131/5/4 130/119/4
f 129/5/5 127/5/5 132/120/5
f 127/5/5 129/5/5 118/109/5
f 117/2/6 131/3/6 128/11/6
f 131/3/6 117/2/6 130/1/6
f 135/3/1 134/2/1 133/1/1
f 134/3/1 135/2/1 136/1/1
f 88/3/2 135/2/2 133/1/2
f 135/3/2 88/2/2 90/1/2
f 137/5/3 134/5/3 136/121/3
f 134/5/3 137/5/3 138/122/3
f 137/5/4 88/5/4 138/123/4
f 88/5/4 137/5/4 90/124/4
f 88/5/5 134/5/5 138/125/5
f 134/5/5 88/5/5 133/126/5
f 135/2/6 137/3/6 136/11/6
f 137/3/6 135/2/6 90/1/6
f 141/3/1 140/2/1 139/1/1
f 140/3/1 141/2/1 142/1/1
f 94/3/2 141/2/2 139/1/2
f 141/3/2 94/2/2 96/1/2
f 143/5/3 140/5/3 142/127/3
f 140/5/3 143/5/3 144/128/3
f 143/5/4 94/5/4 144/129/4
f 94/5/4 143/5/4 96/130/4
f 94/5/5 140/5/5 144/131/5
f 140/5/5 94/5/5 139/132/5
f 141/2/6 143/3/6 142/11/6
f 143/3/6 141/2/6 96/1/6
f 147/3/1 146/2/1 145/1/1
f 146/3/1 147/2/1 148/1/1
f 149/3/2 147/2/2 145/1/2
f 147/3/2 149/2/2 150/1/2
f 151/5/3 146/5/3 148/133/3
f 146/5/3 151/5/3 152/134/3
f 151/5/4 149/5/4 152/135/4
f 149/5/4 151/5/4 150/136/4
f 149/5/5 146/5/5 152/137/5
f 146/5/5 149/5/5 145/138/5
f 147/2/6 151/3/6 148/11/6
f 151/3/6 147/2/6 150/1/6
f 155/3/1 154/2/1 153/1/1
f 154/3/1 155/2/1 156/1/1
f 157/3/2 155/2/2 153/1/2
f 155/3/2 157/2/2 158/1/2
f 159/5/3 154/5/3 156/139/3
f 154/5/3 159/5/3 160/140/3
f 159/5/4 157/5/4 160/141/4
f 157/5/4 159/5/4 158/142/4
f 157/5/5 154/5/5 160/143/5
f 154/5/5 157/5/5 153/144/5
f 155/2/6 159/3/6 156/11/6
f 159/3/6 155/2/6 158/1/6
f 163/3/1 162/2/1 161/1/1
f 162/3/1 163/2/1 164/1/1
f 165/3/2 163/2/2 161/1/2
f 163/3/2 165/2/2 166/1/2
f 167/5/3 162/5/3 164/145/3
f 162/5/3 167/5/3 168/146/3
f 167/5/4 165/5/4 168/147/4
f 165/5/4 167/5/4 166/148/4
f 165/5/5 162/5/5 168/149/5
f 162/5/5 165/5/5 161/150/5
f 163/2/6 167/3/6 164/11/6
f 167/3/6 163/2/6 166/1/6
f 171/3/1 170/2/1 169/1/1
f 170/3/1 171/2/1 172/1/1
f 134/3/2 171/2/2 169/1/2
f 171/3/2 134/2/2 136/1/2
f 173/5/3 170/5/3 172/151/3
f 170/5/3 173/5/3 174/152/3
f 173/5/4 134/5/4 174/153/4
f 134/5/4 173/5/4 136/154/4
f 134/5/5 170/5/5 174/155/5
f 170/5/5 134/5/5 169/156/5
f 171/2/6 173/3/6 172/11/6
f 173/3/6 171/2/6 136/1/6
f 177/3/1 176/2/1 175/1/1
f 176/3/1 177/2/1 178/1/1
f 140/3/2 177/2/2 175/1/2
f 177/3/2 140/2/2 142/1/2
f 179/5/3 176/5/3 178/157/3
f 176/5/3 179/5/3 180/158/3
f 179/5/4 140/5/4 180/159/4
f 140/5/4 179/5/4 142/160/4
f 140/5/5 176/5/5 180/161/5
f 176/5/5 140/5/5 175/162/5
f 177/2/6 179/3/6 178/11/6
f 179/3/6 177/2/6 142/1/6
f 183/3/1 182/2/1 181/1/1
f 182/3/1 183/2/1 184/1/1
f 185/3/2 183/2/2 181/1/2
f 183/3/2 185/2/2 186/1/2
f 187/5/3 182/5/3 184/163/3
f 182/5/3 187/5/3 188/164/3
f 187/5/4 185/5/4 188/165/4
f 185/5/4 187/5/4 186/166/4
f 185/5/5 182/5/5 188/167/5
f 182/5/5 185/5/5 181/168/5
f 183/2/6 187/3/6 184/11/6
f 187/3/6 183/2/6 186/1/6
f 191/3/1 190/2/1 189/1/1
f 190/3/1 191/2/1 192/1/1
f 108/3/2 191/2/2 189/1/2
f 191/3/2 108/2/2 110/1/2
f 193/5/3 190/5/3 192/169/3
f 190/5/3 193/5/3 194/170/3
f 193/5/4 108/5/4 194/171/4
f 108/5/4 193/5/4 110/172/4
f 108/5/5 190/5/5 194/173/5
f 190/5/5 108/5/5 189/174/5
f 191/2/6 193/3/6 192/11/6
f 193/3/6 191/2/6 110/1/6
f 111/3/1 195/2/1 112/1/1
f 195/3/1 111/2/1 196/1/1
f 154/3/2 111/2/2 112/1/2
f 111/3/2 154/2/2 156/1/2
f 197/5/3 195/5/3 196/175/3
f 195/5/3 197/5/3 198/176/3
f 197/5/4 154/5/4 198/177/4
f 154/5/4 197/5/4 156/178/4
f 154/5/5 195/5/5 198/179/5
f 195/5/5 154/5/5 112/103/5
f 111/2/6 197/3/6 196/11/6
f 197/3/6 111/2/6 156/1/6
f 201/3/1 200/2/1 199/1/1
f 200/3/1 201/2/1 202/1/1
f 203/3/2 201/2/2 199/1/2
f 201/3/2 203/2/2 204/1/2
f 205/5/3 200/5/3 202/180/3
f 200/5/3 205/5/3 206/181/3
f 205/5/4 203/5/4 206/182/4
f 203/5/4 205/5/4 204/183/4
f 203/5/5 200/5/5 206/184/5
f 200/5/5 203/5/5 199/185/5
f 201/2/6 205/3/6 202/11/6
f 205/3/6 201/2/6 204/1/6
f 209/3/1 208/2/1 207/1/1
f 208/3/1 209/2/1 210/1/1
f 190/3/2 209/2/2 207/1/2
f 209/3/2 190/2/2 192/1/2
f 211/5/3 208/5/3 210/186/3
f 208/5/3 211/5/3 212/187/3
f 211/5/4 190/5/4 212/188/4
f 190/5/4 211/5/4 192/189/4
f 190/5/5 208/5/5 212/190/5
f 208/5/5 190/5/5 207/191/5
f 209/2/6 211/3/6 210/11/6
f 211/3/6 209/2/6 192/1/6
f 193/3/1 213/2/1 194/1/1
f 213/3/1 193/2/1 214/1/1
f 195/3/2 193/2/2 194/1/2
f 193/3/2 195/2/2 196/1/2
f 215/5/3 213/5/3 214/192/3
f 213/5/3 215/5/3 216/193/3
f 215/5/4 195/5/4 216/194/4
f 195/5/4 215/5/4 196/195/4
f 195/5/5 213/5/5 216/196/5
f 213/5/5 195/5/5 194/173/5
f 193/2/6 215/3/6 214/11/6
f 215/3/6 193/2/6 196/1/6
f 219/3/1 218/2/1 217/1/1
f 218/3/1 219/2/1 220/1/1
f 221/3/2 219/2/2 217/1/2
f 219/3/2 221/2/2 222/1/2
f 223/5/3 218/5/3 220/197/3
f 218/5/3 223/5/3 224/198/3
f 223/5/4 221/5/4 224/199/4
f 221/5/4 223/5/4 222/200/4
f 221/5/5 218/5/5 224/201/5
f 218/5/5 221/5/5 217/202/5
f 219/2/6 223/3/6 220/11/6
f 223/3/6 219/2/6 222/1/6
f 222/3/1 225/2/1 221/1/1
f 225/3/1 222/2/1 226/1/1
f 208/3/2 222/2/2 221/1/2
f 222/3/2 208/2/2 210/1/2
f 227/5/3 225/5/3 226/203/3
f 225/5/3 227/5/3 228/204/3
f 227/5/4 208/5/4 228/205/4
f 208/5/4 227/5/4 210/206/4
f 208/5/5 225/5/5 228/207/5
f 225/5/5 208/5/5 221/5/5
f 222/2/6 227/3/6 226/11/6
f 227/3/6 222/2/6 210/1/6
f 211/3/1 229/2/1 212/1/1
f 229/3/1 211/2/1 230/1/1
f 213/3/2 211/2/2 212/1/2
f 211/3/2 213/2/2 214/1/2
f 231/5/3 229/5/3 230/208/3
f 229/5/3 231/5/3 232/209/3
f 231/5/4 213/5/4 232/210/4
f 213/5/4 231/5/4 214/211/4
f 213/5/5 229/5/5 232/212/5
f 229/5/5 213/5/5 212/190/5
f 211/2/6 231/3/6 230/11/6
f 231/3/6 211/2/6 214/1/6
f 227/3/1 233/2/1 228/1/1
f 233/3/1 227/2/1 234/1/1
f 229/3/2 227/2/2 228/1/2
f 227/3/2 229/2/2 230/1/2
f 235/5/3 233/5/3 234/213/3
f 233/5/3 235/5/3 236/214/3
f 235/5/4 229/5/4 236/215/4
f 229/5/4 235/5/4 230/216/4
f 229/5/5 233/5/5 236/217/5
f 233/5/5 229/5/5 228/207/5
f 227/2/6 235/3/6 234/11/6
f 235/3/6 227/2/6 230/1/6
f 179/3/1 237/2/1 180/1/1
f 237/3/1 179/2/1 238/1/1
f 239/3/2 179/2/2 180/1/2
f 179/3/2 239/2/2 240/1/2
f 241/5/3 237/5/3 238/218/3
f 237/5/3 241/5/3 242/219/3
f 241/5/4 239/5/4 242/220/4
f 239/5/4 241/5/4 240/221/4
f 239/5/5 237/5/5 242/222/5
f 237/5/5 239/5/5 180/161/5
f 179/2/6 241/3/6 238/11/6
f 241/3/6 179/2/6 240/1/6
f 245/3/1 244/2/1 243/1/1
f 244/3/1 245/2/1 246/1/1
f 218/3/2 245/2/2 243/1/2
f 245/3/2 218/2/2 220/1/2
f 247/5/3 244/5/3 246/223/3
f 244/5/3 247/5/3 248/224/3
f 247/5/4 218/5/4 248/225/4
f 218/5/4 247/5/4 220/226/4
f 218/5/5 244/5/5 248/227/5
f 244/5/5 218/5/5 243/228/5
f 245/2/6 247/3/6 246/11/6
f 247/3/6 245/2/6 220/1/6
f 223/3/1 249/2/1 224/1/1
f 249/3/1 223/2/1 250/1/1
f 251/3/2 223/2/2 224/1/2
f 223/3/2 251/2/2 252/1/2
f 253/5/3 249/5/3 250/229/3
f 249/5/3 253/5/3 254/230/3
f 253/5/4 251/5/4 254/231/4
f 251/5/4 253/5/4 252/232/4
f 251/5/5 249/5/5 254/233/5
f 249/5/5 251/5/5 224/201/5
f 223/2/6 253/3/6 250/11/6
f 253/3/6 223/2/6 252/1/6
f 257/3/1 256/2/1 255/1/1
f 256/3/1 257/2/1 258/1/1
f 244/3/2 257/2/2 255/1/2
f 257/3/2 244/2/2 246/1/2
f 259/5/3 256/5/3 258/234/3
f 256/5/3 259/5/3 260/235/3
f 259/5/4 244/5/4 260/236/4
f 244/5/4 259/5/4 246/237/4
f 244/5/5 256/5/5 260/238/5
f 256/5/5 244/5/5 255/239/5
f 257/2/6 259/3/6 258/11/6
f 259/3/6 257/2/6 246/1/6
f 247/3/1 261/2/1 248/1/1
f 261/3/1 247/2/1 262/1/1
f 249/3/2 247/2/2 248/1/2
f 247/3/2 249/2/2 250/1/2
f 263/5/3 261/5/3 262/240/3
f 261/5/3 263/5/3 264/241/3
f 263/5/4 249/5/4 264/242/4
f 249/5/4 263/5/4 250/243/4
f 249/5/5 261/5/5 264/244/5
f 261/5/5 249/5/5 248/227/5
f 247/2/6 263/3/6 262/11/6
f 263/3/6 247/2/6 250/1/6
f 267/3/1 266/2/1 265/1/1
f 266/3/1 267/2/1 268/1/1
f 269/3/2 267/2/2 265/1/2
f 267/3/2 269/2/2 270/1/2
f 271/5/3 266/5/3 268/245/3
f 266/5/3 271/5/3 272/246/3
f 271/5/4 269/5/4 272/247/4
f 269/5/4 271/5/4 270/248/4
f 269/5/5 266/5/5 272/249/5
f 266/5/5 269/5/5 265/250/5
f 267/2/6 271/3/6 268/11/6
f 271/3/6 267/2/6 270/1/6
f 275/3/1 274/2/1 273/1/1
f 274/3/1 275/2/1 276/1/1
f 256/3/2 275/2/2 273/1/2
f 275/3/2 256/2/2 258/1/2
f 277/5/3 274/5/3 276/251/3
f 274/5/3 277/5/3 278/252/3
f 277/5/4 256/5/4 278/253/4
f 256/5/4 277/5/4 258/254/4
f 256/5/5 274/5/5 278/255/5
f 274/5/5 256/5/5 273/256/5
f 275/2/6 277/3/6 276/11/6
f 277/3/6 275/2/6 258/1/6
f 259/3/1 279/2/1 260/1/1
f 279/3/1 259/2/1 280/1/1
f 261/3/2 259/2/2 260/1/2
f 259/3/2 261/2/2 262/1/2
f 281/5/3 279/5/3 280/257/3
f 279/5/3 281/5/3 282/258/3
f 281/5/4 261/5/4 282/259/4
f 261/5/4 281/5/4 262/260/4
f 261/5/5 279/5/5 282/261/5
f 279/5/5 261/5/5 260/238/5
f 259/2/6 281/3/6 280/11/6
f 281/3/6 259/2/6 262/1/6
f 285/3/1 284/2/1 283/1/1
f 284/3/1 285/2/1 286/1/1
f 287/3/2 285/2/2 283/1/2
f 285/3/2 287/2/2 288/1/2
f 289/5/3 284/5/3 286/262/3
f 284/5/3 289/5/3 290/263/3
f 289/5/4 287/5/4 290/264/4
f 287/5/4 289/5/4 288/265/4
f 287/5/5 284/5/5 290/266/5
f 284/5/5 287/5/5 283/267/5
f 285/2/6 289/3/6 286/11/6
f 289/3/6 285/2/6 288/1/6
f 293/3/1 292/2/1 291/1/1
f 292/3/1 293/2/1 294/1/1
f 274/3/2 293/2/2 291/1/2
f 293/3/2 274/2/2 276/1/2
f 295/5/3 292/5/3 294/268/3
f 292/5/3 295/5/3 296/269/3
f 295/5/4 274/5/4 296/270/4
f 274/5/4 295/5/4 276/271/4
f 274/5/5 292/5/5 296/272/5
f 292/5/5 274/5/5 291/273/5
f 293/2/6 295/3/6 294/11/6
f 295/3/6 293/2/6 276/1/6
f 277/3/1 297/2/1 278/1/1
f 297/3/1 277/2/1 298/1/1
f 279/3/2 277/2/2 278/1/2
f 277/3/2 279/2/2 280/1/2
f 299/5/3 297/5/3 298/274/3
f 297/5/3 299/5/3 300/275/3
f 299/5/4 279/5/4 300/276/4
f 279/5/4 299/5/4 280/277/4
f 279/5/5 297/5/5 300/278/5
f 297/5/5 279/5/5 278/255/5
f 277/2/6 299/3/6 298/11/6
f 299/3/6 277/2/6 280/1/6
f 303/3/1 302/2/1 301/1/1
f 302/3/1 303/2/1 304/1/1
f 305/3/2 303/2/2 301/1/2
f 303/3/2 305/2/2 306/1/2
f 307/5/3 302/5/3 304/279/3
f 302/5/3 307/5/3 308/280/3
f 307/5/4 305/5/4 308/281/4
f 305/5/4 307/5/4 306/282/4
f 305/5/5 302/5/5 308/283/5
f 302/5/5 305/5/5 301/284/5
f 303/2/6 307/3/6 304/11/6
f 307/3/6 303/2/6 306/1/6
f 311/3/1 310/2/1 309/1/1
f 310/3/1 311/2/1 312/1/1
f 313/3/2 311/2/2 309/1/2
f 311/3/2 313/2/2 314/1/2
f 315/5/3 310/5/3 312/285/3
f 310/5/3 315/5/3 316/286/3
f 315/5/4 313/5/4 316/287/4
f 313/5/4 315/5/4 314/288/4
f 313/5/5 310/5/5 316/289/5
f 310/5/5 313/5/5 309/290/5
f 311/2/6 315/3/6 312/11/6
f 315/3/6 311/2/6 314/1/6
f 173/3/1 317/2/1 174/1/1
f 317/3/1 173/2/1 318/1/1
f 319/3/2 173/2/2 174/1/2
f 173/3/2 319/2/2 320/1/2
f 321/5/3 317/5/3 318/291/3
f 317/5/3 321/5/3 322/292/3
f 321/5/4 319/5/4 322/293/4
f 319/5/4 321/5/4 320/294/4
f 319/5/5 317/5/5 322/295/5
f 317/5/5 319/5/5 174/155/5
f 173/2/6 321/3/6 318/11/6
f 321/3/6 173/2/6 320/1/6
f 241/3/1 323/2/1 242/1/1
f 323/3/1 241/2/1 324/1/1
f 325/3/2 241/2/2 242/1/2
f 241/3/2 325/2/2 326/1/2
f 327/5/3 323/5/3 324/296/3
f 323/5/3 327/5/3 328/297/3
f 327/5/4 325/5/4 328/298/4
f 325/5/4 327/5/4 326/299/4
f 325/5/5 323/5/5 328/300/5
f 323/5/5 325/5/5 242/222/5
f 241/2/6 327/3/6 324/11/6
f 327/3/6 241/2/6 326/1/6
f 331/3/1 330/2/1 329/1/1
f 330/3/1 331/2/1 332/1/1
f 292/3/2 331/2/2 329/1/2
f 331/3/2 292/2/2 294/1/2
f 333/5/3 330/5/3 332/301/3
f 330/5/3 333/5/3 334/302/3
f 333/5/4 292/5/4 334/303/4
f 292/5/4 333/5/4 294/304/4
f 292/5/5 330/5/5 334/305/5
f 330/5/5 292/5/5 329/306/5
f 331/2/6 333/3/6 332/11/6
f 333/3/6 331/2/6 294/1/6
f 295/3/1 335/2/1 296/1/1
f 335/3/1 295/2/1 336/1/1
f 297/3/2 295/2/2 296/1/2
f 295/3/2 297/2/2 298/1/2
f 337/5/3 335/5/3 336/307/3
f 335/5/3 337/5/3 338/308/3
f 337/5/4 297/5/4 338/309/4
f 297/5/4 337/5/4 298/310/4
f 297/5/5 335/5/5 338/311/5
f 335/5/5 297/5/5 296/272/5
f 295/2/6 337/3/6 336/11/6
f 337/3/6 295/2/6 298/1/6
f 341/3/1 340/2/1 339/1/1
f 340/3/1 341/2/1 342/1/1
f 343/3/2 341/2/2 339/1/2
f 341/3/2 343/2/2 344/1/2
f 345/5/3 340/5/3 342/312/3
f 340/5/3 345/5/3 346/313/3
f 345/5/4 343/5/4 346/314/4
f 343/5/4 345/5/4 344/315/4
f 343/5/5 340/5/5 346/316/5
f 340/5/5 343/5/5 339/317/5
f 341/2/6 345/3/6 342/11/6
f 345/3/6 341/2/6 344/1/6
f 349/3/1 348/2/1 347/1/1
f 348/3/1 349/2/1 350/1/1
f 310/3/2 349/2/2 347/1/2
f 349/3/2 310/2/2 312/1/2
f 351/5/3 348/5/3 350/318/3
f 348/5/3 351/5/3 352/319/3
f 351/5/4 310/5/4 352/320/4
f 310/5/4 351/5/4 312/321/4
f 310/5/5 348/5/5 352/322/5
f 348/5/5 310/5/5 347/323/5
f 349/2/6 351/3/6 350/11/6
f 351/3/6 349/2/6 312/1/6
f 315/3/1 353/2/1 316/1/1
f 353/3/1 315/2/1 354/1/1
f 355/3/2 315/2/2 316/1/2
f 315/3/2 355/2/2 356/1/2
f 357/5/3 353/5/3 354/324/3
f 353/5/3 357/5/3 358/325/3
f 357/5/4 355/5/4 358/326/4
f 355/5/4 357/5/4 356/327/4
f 355/5/5 353/5/5 358/328/5
f 353/5/5 355/5/5 316/289/5
f 315/2/6 357/3/6 354/11/6
f 357/3/6 315/2/6 356/1/6
f 327/3/1 359/2/1 328/1/1
f 359/3/1 327/2/1 360/1/1
f 361/3/2 327/2/2 328/1/2
f 327/3/2 361/2/2 362/1/2
f 363/5/3 359/5/3 360/329/3
f 359/5/3 363/5/3 364/330/3
f 363/5/4 361/5/4 364/331/4
f 361/5/4 363/5/4 362/332/4
f 361/5/5 359/5/5 364/333/5
f 359/5/5 361/5/5 328/300/5
f 327/2/6 363/3/6 360/11/6
f 363/3/6 327/2/6 362/1/6
f 362/3/1 365/2/1 361/1/1
f 365/3/1 362/2/1 366/1/1
f 330/3/2 362/2/2 361/1/2
f 362/3/2 330/2/2 332/1/2
f 367/5/3 365/5/3 366/334/3
f 365/5/3 367/5/3 368/335/3
f 367/5/4 330/5/4 368/336/4
f 330/5/4 367/5/4 332/337/4
f 330/5/5 365/5/5 368/338/5
f 365/5/5 330/5/5 361/5/5
f 362/2/6 367/3/6 366/11/6
f 367/3/6 362/2/6 332/1/6
f 333/3/1 369/2/1 334/1/1
f 369/3/1 333/2/1 370/1/1
f 335/3/2 333/2/2 334/1/2
f 333/3/2 335/2/2 336/1/2
f 371/5/3 369/5/3 370/339/3
f 369/5/3 371/5/3 372/340/3
f 371/5/4 335/5/4 372/341/4
f 335/5/4 371/5/4 336/342/4
f 335/5/5 369/5/5 372/343/5
f 369/5/5 335/5/5 334/305/5
f 333/2/6 371/3/6 370/11/6
f 371/3/6 333/2/6 336/1/6
f 375/3/1 374/2/1 373/1/1
f 374/3/1 375/2/1 376/1/1
f 377/3/2 375/2/2 373/1/2
f 375/3/2 377/2/2 378/1/2
f 379/5/3 374/5/3 376/344/3
f 374/5/3 379/5/3 380/345/3
f 379/5/4 377/5/4 380/346/4
f 377/5/4 379/5/4 378/347/4
f 377/5/5 374/5/5 380/348/5
f 374/5/5 377/5/5 373/349/5
f 375/2/6 379/3/6 376/11/6
f 379/3/6 375/2/6 378/1/6
f 357/3/1 381/2/1 358/1/1
f 381/3/1 357/2/1 382/1/1
f 383/3/2 357/2/2 358/1/2
f 357/3/2 383/2/2 384/1/2
f 385/5/3 381/5/3 382/350/3
f 381/5/3 385/5/3 386/351/3
f 385/5/4 383/5/4 386/352/4
f 383/5/4 385/5/4 384/353/4
f 383/5/5 381/5/5 386/354/5
f 381/5/5 383/5/5 358/328/5
f 357/2/6 385/3/6 382/11/6
f 385/3/6 357/2/6 384/1/6
f 321/3/1 387/2/1 322/1/1
f 387/3/1 321/2/1 388/1/1
f 389/3/2 321/2/2 322/1/2
f 321/3/2 389/2/2 390/1/2
f 391/5/3 387/5/3 388/355/3
f 387/5/3 391/5/3 392/356/3
f 391/5/4 389/5/4 392/357/4
f 389/5/4 391/5/4 390/358/4
f 389/5/5 387/5/5 392/359/5
f 387/5/5 389/5/5 322/295/5
f 321/2/6 391/3/6 388/11/6
f 391/3/6 321/2/6 390/1/6
f 367/3/1 393/2/1 368/1/1
f 393/3/1 367/2/1 394/1/1
f 369/3/2 367/2/2 368/1/2
f 367/3/2 369/2/2 370/1/2
f 395/5/3 393/5/3 394/360/3
f 393/5/3 395/5/3 396/361/3
f 395/5/4 369/5/4 396/362/4
f 369/5/4 395/5/4 370/363/4
f 369/5/5 393/5/5 396/364/5
f 393/5/5 369/5/5 368/338/5
f 367/2/6 395/3/6 394/11/6
f 395/3/6 367/2/6 370/1/6
f 399/3/1 398/2/1 397/1/1
f 398/3/1 399/2/1 400/1/1
f 348/3/2 399/2/2 397/1/2
f 399/3/2 348/2/2 350/1/2
f 401/5/3 398/5/3 400/365/3
f 398/5/3 401/5/3 402/366/3
f 401/5/4 348/5/4 402/367/4
f 348/5/4 401/5/4 350/368/4
f 348/5/5 398/5/5 402/369/5
f 398/5/5 348/5/5 397/370/5
f 399/2/6 401/3/6 400/11/6
f 401/3/6 399/2/6 350/1/6
f 351/3/1 403/2/1 352/1/1
f 403/3/1 351/2/1 404/1/1
f 405/3/2 351/2/2 352/1/2
f 351/3/2 405/2/2 406/1/2
f 407/5/3 403/5/3 404/371/3
f 403/5/3 407/5/3 408/372/3
f 407/5/4 405/5/4 408/373/4
f 405/5/4 407/5/4 406/374/4
f 405/5/5 403/5/5 408/375/5
f 403/5/5 405/5/5 352/322/5
f 351/2/6 407/3/6 404/11/6
f 407/3/6 351/2/6 406/1/6
f 363/3/1 409/2/1 364/1/1
f 409/3/1 363/2/1 410/1/1
f 411/3/2 363/2/2 364/1/2
f 363/3/2 411/2/2 412/1/2
f 394/360/3 409/5/3 410/376/3
f 409/5/3 394/360/3 393/5/3
f 394/5/4 411/5/4 393/377/4
f 411/5/4 394/5/4 412/378/4
f 411/5/5 409/5/5 393/5/5
f 409/5/5 411/5/5 364/333/5
f 363/2/6 394/3/6 410/11/6
f 394/3/6 363/2/6 412/1/6
f 415/3/1 414/2/1 413/1/1
f 414/3/1 415/2/1 416/1/1
f 403/3/2 415/2/2 413/1/2
f 415/3/2 403/2/2 404/1/2
f 417/5/3 414/5/3 416/379/3
f 414/5/3 417/5/3 418/380/3
f 417/5/4 403/5/4 418/381/4
f 403/5/4 417/5/4 404/382/4
f 403/5/5 414/5/5 418/383/5
f 414/5/5 403/5/5 413/384/5
f 415/2/6 417/3/6 416/11/6
f 417/3/6 415/2/6 404/1/6
f 391/3/1 419/2/1 392/1/1
f 419/3/1 391/2/1 420/1/1
f 421/3/2 391/2/2 392/1/2
f 391/3/2 421/2/2 422/1/2
f 423/5/3 419/5/3 420/385/3
f 419/5/3 423/5/3 424/386/3
f 423/5/4 421/5/4 424/387/4
f 421/5/4 423/5/4 422/388/4
f 421/5/5 419/5/5 424/389/5
f 419/5/5 421/5/5 392/359/5
f 391/2/6 423/3/6 420/11/6
f 423/3/6 391/2/6 422/1/6
f 395/3/1 425/2/1 396/1/1
f 425/3/1 395/2/1 426/1/1
f 427/3/2 395/2/2 396/1/2
f 395/3/2 427/2/2 428/1/2
f 429/5/3 425/5/3 426/390/3
f 425/5/3 429/5/3 430/391/3
f 429/5/4 427/5/4 430/392/4
f 427/5/4 429/5/4 428/393/4
f 427/5/5 425/5/5 430/394/5
f 425/5/5 427/5/5 396/364/5
f 395/2/6 429/3/6 426/11/6
f 429/3/6 395/2/6 428/1/6
f 433/3/1 432/2/1 431/1/1
f 432/3/1 433/2/1 434/1/1
f 435/3/2 433/2/2 431/1/2
f 433/3/2 435/2/2 436/1/2
f 400/365/3 432/5/3 434/395/3
f 432/5/3 400/365/3 398/5/3
f 400/5/4 435/5/4 398/396/4
f 435/5/4 400/5/4 436/397/4
f 435/5/5 432/5/5 398/5/5
f 432/5/5 435/5/5 431/398/5
f 433/2/6 400/3/6 434/11/6
f 400/3/6 433/2/6 436/1/6
f 439/3/1 438/2/1 437/1/1
f 438/3/1 439/2/1 440/1/1
f 441/3/2 439/2/2 437/1/2
f 439/3/2 441/2/2 442/1/2
f 443/5/3 438/5/3 440/399/3
f 438/5/3 443/5/3 444/400/3
f 443/5/4 441/5/4 444/401/4
f 441/5/4 443/5/4 442/402/4
f 441/5/5 438/5/5 444/403/5
f 438/5/5 441/5/5 437/404/5
f 439/2/6 443/3/6 440/11/6
f 443/3/6 439/2/6 442/1/6
f 423/3/1 445/2/1 424/1/1
f 445/3/1 423/2/1 446/1/1
f 447/3/2 423/2/2 424/1/2
f 423/3/2 447/2/2 448/1/2
f 449/5/3 445/5/3 446/405/3
f 445/5/3 449/5/3 450/406/3
f 449/5/4 447/5/4 450/407/4
f 447/5/4 449/5/4 448/408/4
f 447/5/5 445/5/5 450/409/5
f 445/5/5 447/5/5 424/389/5
f 423/2/6 449/3/6 446/11/6
f 449/3/6 423/2/6 448/1/6
f 429/3/1 451/2/1 430/1/1
f 451/3/1 429/2/1 452/1/1
f 453/3/2 429/2/2 430/1/2
f 429/3/2 453/2/2 454/1/2
f 455/5/3 451/5/3 452/410/3
f 451/5/3 455/5/3 456/411/3
f 455/5/4 453/5/4 456/412/4
f 453/5/4 455/5/4 454/413/4
f 453/5/5 451/5/5 456/414/5
f 451/5/5 453/5/5 430/394/5
f 429/2/6 455/3/6 452/11/6
f 455/3/6 429/2/6 454/1/6
f 459/3/1 458/2/1 457/1/1
f 458/3/1 459/2/1 460/1/1
f 432/3/2 459/2/2 457/1/2
f 459/3/2 432/2/2 434/1/2
f 461/5/3 458/5/3 460/415/3
f 458/5/3 461/5/3 462/416/3
f 461/5/4 432/5/4 462/417/4
f 432/5/4 461/5/4 434/418/4
f 432/5/5 458/5/5 462/419/5
f 458/5/5 432/5/5 457/420/5
f 459/2/6 461/3/6 460/11/6
f 461/3/6 459/2/6 434/1/6
f 465/3/1 464/2/1 463/1/1
f 464/3/1 465/2/1 466/1/1
f 381/3/2 465/2/2 463/1/2
f 465/3/2 381/2/2 382/1/2
f 467/5/3 464/5/3 466/421/3
f 464/5/3 467/5/3 468/422/3
f 467/5/4 381/5/4 468/423/4
f 381/5/4 467/5/4 382/424/4
f 381/5/5 464/5/5 468/425/5
f 464/5/5 381/5/5 463/426/5
f 465/2/6 467/3/6 466/11/6
f 467/3/6 465/2/6 382/1/6
f 471/3/1 470/2/1 469/1/1
f 470/3/1 471/2/1 472/1/1
f 473/3/2 471/2/2 469/1/2
f 471/3/2 473/2/2 474/1/2
f 475/5/3 470/5/3 472/427/3
f 470/5/3 475/5/3 476/428/3
f 475/5/4 473/5/4 476/429/4
f 473/5/4 475/5/4 474/430/4
f 473/5/5 470/5/5 476/431/5
f 470/5/5 473/5/5 469/432/5
f 471/2/6 475/3/6 472/11/6
f 475/3/6 471/2/6 474/1/6
f 479/3/1 478/2/1 477/1/1
f 478/3/1 479/2/1 480/1/1
f 481/3/2 479/2/2 477/1/2
f 479/3/2 481/2/2 482/1/2
f 483/5/3 478/5/3 480/433/3
f 478/5/3 483/5/3 484/434/3
f 483/5/4 481/5/4 484/435/4
f 481/5/4 483/5/4 482/436/4
f 481/5/5 478/5/5 484/437/5
f 478/5/5 481/5/5 477/438/5
f 479/2/6 483/3/6 480/11/6
f 483/3/6 479/2/6 482/1/6
f 482/3/1 485/2/1 481/1/1
f 485/3/1 482/2/1 486/1/1
f 445/3/2 482/2/2 481/1/2
f 482/3/2 445/2/2 446/1/2
f 487/5/3 485/5/3 486/439/3
f 485/5/3 487/5/3 488/440/3
f 487/5/4 445/5/4 488/441/4
f 445/5/4 487/5/4 446/442/4
f 445/5/5 485/5/5 488/443/5
f 485/5/5 445/5/5 481/5/5
f 482/2/6 487/3/6 486/11/6
f 487/3/6 482/2/6 446/1/6
f 449/3/1 489/2/1 450/1/1
f 489/3/1 449/2/1 490/1/1
f 491/3/2 449/2/2 450/1/2
f 449/3/2 491/2/2 492/1/2
f 493/5/3 489/5/3 490/444/3
f 489/5/3 493/5/3 494/445/3
f 493/5/4 491/5/4 494/446/4
f 491/5/4 493/5/4 492/447/4
f 491/5/5 489/5/5 494/448/5
f 489/5/5 491/5/5 450/409/5
f 449/2/6 493/3/6 490/11/6
f 493/3/6 449/2/6 492/1/6
f 455/3/1 495/2/1 456/1/1
f 495/3/1 455/2/1 496/1/1
f 458/3/2 455/2/2 456/1/2
f 455/3/2 458/2/2 460/1/2
f 497/5/3 495/5/3 496/449/3
f 495/5/3 497/5/3 498/450/3
f 497/5/4 458/5/4 498/451/4
f 458/5/4 497/5/4 460/452/4
f 458/5/5 495/5/5 498/453/5
f 495/5/5 458/5/5 456/414/5
f 455/2/6 497/3/6 496/11/6
f 497/3/6 455/2/6 460/1/6
f 501/3/1 500/2/1 499/1/1
f 500/3/1 501/2/1 502/1/1
f 464/3/2 501/2/2 499/1/2
f 501/3/2 464/2/2 466/1/2
f 503/5/3 500/5/3 502/454/3
f 500/5/3 503/5/3 504/455/3
f 503/5/4 464/5/4 504/456/4
f 464/5/4 503/5/4 466/457/4
f 464/5/5 500/5/5 504/458/5
f 500/5/5 464/5/5 499/459/5
f 501/2/6 503/3/6 502/11/6
f 503/3/6 501/2/6 466/1/6
f 507/3/1 506/2/1 505/1/1
f 506/3/1 507/2/1 508/1/1
f 509/3/2 507/2/2 505/1/2
f 507/3/2 509/2/2 510/1/2
f 472/427/3 506/5/3 508/460/3
f 506/5/3 472/427/3 470/5/3
f 472/5/4 509/5/4 470/461/4
f 509/5/4 472/5/4 510/462/4
f 509/5/5 506/5/5 470/5/5
f 506/5/5 509/5/5 505/463/5
f 507/2/6 472/3/6 508/11/6
f 472/3/6 507/2/6 510/1/6
f 487/3/1 511/2/1 488/1/1
f 511/3/1 487/2/1 512/1/1
f 489/3/2 487/2/2 488/1/2
f 487/3/2 489/2/2 490/1/2
f 513/5/3 511/5/3 512/464/3
f 511/5/3 513/5/3 514/465/3
f 513/5/4 489/5/4 514/466/4
f 489/5/4 513/5/4 490/467/4
f 489/5/5 511/5/5 514/468/5
f 511/5/5 489/5/5 488/443/5
f 487/2/6 513/3/6 512/11/6
f 513/3/6 487/2/6 490/1/6
f 493/3/1 515/2/1 494/1/1
f 515/3/1 493/2/1 516/1/1
f 517/3/2 493/2/2 494/1/2
f 493/3/2 517/2/2 518/1/2
f 519/5/3 515/5/3 516/469/3
f 515/5/3 519/5/3 520/470/3
f 519/5/4 517/5/4 520/471/4
f 517/5/4 519/5/4 518/472/4
f 517/5/5 515/5/5 520/473/5
f 515/5/5 517/5/5 494/448/5
f 493/2/6 519/3/6 516/11/6
f 519/3/6 493/2/6 518/1/6
f 523/3/1 522/2/1 521/1/1
f 522/3/1 523/2/1 524/1/1
f 500/3/2 523/2/2 521/1/2
f 523/3/2 500/2/2 502/1/2
f 525/5/3 522/5/3 524/474/3
f 522/5/3 525/5/3 526/475/3
f 525/5/4 500/5/4 526/476/4
f 500/5/4 525/5/4 502/477/4
f 500/5/5 522/5/5 526/478/5
f 522/5/5 500/5/5 521/479/5
f 523/2/6 525/3/6 524/11/6
f 525/3/6 523/2/6 502/1/6
f 529/3/1 528/2/1 527/1/1
f 528/3/1 529/2/1 530/1/1
f 506/3/2 529/2/2 527/1/2
f 529/3/2 506/2/2 508/1/2
f 531/5/3 528/5/3 530/480/3
f 528/5/3 531/5/3 532/481/3
f 531/5/4 506/5/4 532/482/4
f 506/5/4 531/5/4 508/483/4
f 506/5/5 528/5/5 532/484/5
f 528/5/5 506/5/5 527/485/5
f 529/2/6 531/3/6 530/11/6
f 531/3/6 529/2/6 508/1/6
f 483/3/1 533/2/1 484/1/1
f 533/3/1 483/2/1 534/1/1
f 535/3/2 483/2/2 484/1/2
f 483/3/2 535/2/2 536/1/2
f 537/5/3 533/5/3 534/486/3
f 533/5/3 537/5/3 538/487/3
f 537/5/4 535/5/4 538/488/4
f 535/5/4 537/5/4 536/489/4
f 535/5/5 533/5/5 538/490/5
f 533/5/5 535/5/5 484/437/5
f 483/2/6 537/3/6 534/11/6
f 537/3/6 483/2/6 536/1/6
f 519/3/1 539/2/1 520/1/1
f 539/3/1 519/2/1 540/1/1
f 541/3/2 519/2/2 520/1/2
f 519/3/2 541/2/2 542/1/2
f 543/5/3 539/5/3 540/491/3
f 539/5/3 543/5/3 544/492/3
f 543/5/4 541/5/4 544/493/4
f 541/5/4 543/5/4 542/494/4
f 541/5/5 539/5/5 544/495/5
f 539/5/5 541/5/5 520/473/5
f 519/2/6 543/3/6 540/11/6
f 543/3/6 519/2/6 542/1/6
f 547/3/1 546/2/1 545/1/1
f 546/3/1 547/2/1 548/1/1
f 522/3/2 547/2/2 545/1/2
f 547/3/2 522/2/2 524/1/2
f 549/5/3 546/5/3 548/496/3
f 546/5/3 549/5/3 550/497/3
f 549/5/4 522/5/4 550/498/4
f 522/5/4 549/5/4 524/499/4
f 522/5/5 546/5/5 550/500/5
f 546/5/5 522/5/5 545/501/5
f 547/2/6 549/3/6 548/11/6
f 549/3/6 547/2/6 524/1/6
f 553/3/1 552/2/1 551/1/1
f 552/3/1 553/2/1 554/1/1
f 555/3/2 553/2/2 551/1/2
f 553/3/2 555/2/2 556/1/2
f 557/5/3 552/5/3 554/502/3
f 552/5/3 557/5/3 558/503/3
f 557/5/4 555/5/4 558/504/4
f 555/5/4 557/5/4 556/505/4
f 555/5/5 552/5/5 558/506/5
f 552/5/5 555/5/5 551/507/5
f 553/2/6 557/3/6 554/11/6
f 557/3/6 553/2/6 556/1/6
f 543/3/1 559/2/1 544/1/1
f 559/3/1 543/2/1 560/1/1
f 561/3/2 543/2/2 544/1/2
f 543/3/2 561/2/2 562/1/2
f 563/5/3 559/5/3 560/508/3
f 559/5/3 563/5/3 564/509/3
f 563/5/4 561/5/4 564/510/4
f 561/5/4 563/5/4 562/511/4
f 561/5/5 559/5/5 564/512/5
f 559/5/5 561/5/5 544/495/5
f 543/2/6 563/3/6 560/11/6
f 563/3/6 543/2/6 562/1/6
f 567/3/1 566/2/1 565/1/1
f 566/3/1 567/2/1 568/1/1
f 546/3/2 567/2/2 565/1/2
f 567/3/2 546/2/2 548/1/2
f 569/5/3 566/5/3 568/513/3
f 566/5/3 569/5/3 570/514/3
f 569/5/4 546/5/4 570/515/4
f 546/5/4 569/5/4 548/516/4
f 546/5/5 566/5/5 570/517/5
f 566/5/5 546/5/5 565/518/5
f 567/2/6 569/3/6 568/11/6
f 569/3/6 567/2/6 548/1/6
f 573/3/1 572/2/1 571/1/1
f 572/3/1 573/2/1 574/1/1
f 575/3/2 573/2/2 571/1/2
f 573/3/2 575/2/2 576/1/2
f 577/5/3 572/5/3 574/519/3
f 572/5/3 577/5/3 578/520/3
f 577/5/4 575/5/4 578/521/4
f 575/5/4 577/5/4 576/522/4
f 575/5/5 572/5/5 578/523/5
f 572/5/5 575/5/5 571/524/5
f 573/2/6 577/3/6 574/11/6
f 577/3/6 573/2/6 576/1/6
f 563/3/1 579/2/1 564/1/1
f 579/3/1 563/2/1 580/1/1
f 566/3/2 563/2/2 564/1/2
f 563/3/2 566/2/2 568/1/2
f 581/5/3 579/5/3 580/525/3
f 579/5/3 581/5/3 582/526/3
f 581/5/4 566/5/4 582/527/4
f 566/5/4 581/5/4 568/528/4
f 566/5/5 579/5/5 582/529/5
f 579/5/5 566/5/5 564/512/5
f 563/2/6 581/3/6 580/11/6
f 581/3/6 563/2/6 568/1/6
f 584/3/1 532/2/1 583/1/1
f 532/3/1 584/2/1 531/1/1
f 572/3/2 584/2/2 583/1/2
f 584/3/2 572/2/2 574/1/2
f 585/5/3 532/481/3 531/5/3
f 532/481/3 585/5/3 586/530/3
f 585/5/4 572/5/4 586/531/4
f 572/5/4 585/5/4 574/532/4
f 572/5/5 532/484/5 586/533/5
f 532/484/5 572/5/5 583/534/5
f 584/2/6 585/3/6 531/11/6
f 585/3/6 584/2/6 574/1/6
f 50/3/1 53/2/1 49/1/1
f 53/3/1 50/2/1 54/1/1
f 55/3/2 50/2/2 49/1/2
f 50/3/2 55/2/2 56/1/2
f 57/5/3 53/5/3 54/50/3
f 53/5/3 57/5/3 58/51/3
f 57/5/4 55/5/4 58/52/4
f 55/5/4 57/5/4 56/53/4
f 55/5/5 53/5/5 58/54/5
f 53/5/5 55/5/5 49/5/5
f 50/2/6 57/3/6 54/11/6
f 57/3/6 50/2/6 56/1/6
f 222/3/1 225/2/1 221/1/1
f 225/3/1 222/2/1 226/1/1
f 208/3/2 222/2/2 221/1/2
f 222/3/2 208/2/2 210/1/2
f 227/5/3 225/5/3 226/203/3
f 225/5/3 227/5/3 228/204/3
f 227/5/4 208/5/4 228/205/4
f 208/5/4 227/5/4 210/206/4
f 208/5/5 225/5/5 228/207/5
f 225/5/5 208/5/5 221/5/5
f 222/2/6 227/3/6 226/11/6
f 227/3/6 222/2/6 210/1/6
f 362/3/1 365/2/1 361/1/1
f 365/3/1 362/2/1 366/1/1
f 330/3/2 362/2/2 361/1/2
f 362/3/2 330/2/2 332/1/2
f 367/5/3 365/5/3 366/334/3
f 365/5/3 367/5/3 368/335/3
f 367/5/4 330/5/4 368/336/4
f 330/5/4 367/5/4 332/337/4
f 330/5/5 365/5/5 368/338/5
f 365/5/5 330/5/5 361/5/5
f 362/2/6 367/3/6 366/11/6
f 367/3/6 362/2/6 332/1/6
f 482/3/1 485/2/1 481/1/1
f 485/3/1 482/2/1 486/1/1
f 445/3/2 482/2/2 481/1/2
f 482/3/2 445/2/2 446/1/2
f 487/5/3 485/5/3 486/439/3
f 485/5/3 487/5/3 488/440/3
f 487/5/4 445/5/4 488/441/4
f 445/5/4 487/5/4 446/442/4
f 445/5/5 485/5/5 488/443/5
f 485/5/5 445/5/5 481/5/5
f 482/2/6 487/3/6 486/11/6
f 487/3/6 482/2/6 446/1/6

usemtl color6

f 589/3/1 588/2/1 587/1/1
f 588/3/1 589/2/1 590/1/1
f 591/3/2 589/2/2 587/1/2
f 589/3/2 591/2/2 592/1/2
f 593/5/3 588/5/3 590/535/3
f 588/5/3 593/5/3 594/536/3
f 593/5/4 591/5/4 594/537/4
f 591/5/4 593/5/4 592/538/4
f 591/5/5 588/5/5 594/539/5
f 588/5/5 591/5/5 587/540/5
f 589/2/6 593/3/6 590/11/6
f 593/3/6 589/2/6 592/1/6
f 592/3/1 595/2/1 591/1/1
f 595/3/1 592/2/1 596/1/1
f 597/3/2 592/2/2 591/1/2
f 592/3/2 597/2/2 598/1/2
f 599/5/3 595/5/3 596/541/3
f 595/5/3 599/5/3 600/542/3
f 599/5/4 597/5/4 600/543/4
f 597/5/4 599/5/4 598/544/4
f 597/5/5 595/5/5 600/545/5
f 595/5/5 597/5/5 591/5/5
f 592/2/6 599/3/6 596/11/6
f 599/3/6 592/2/6 598/1/6
f 603/3/1 602/2/1 601/1/1
f 602/3/1 603/2/1 604/1/1
f 605/3/2 603/2/2 601/1/2
f 603/3/2 605/2/2 606/1/2
f 607/5/3 602/5/3 604/546/3
f 602/5/3 607/5/3 608/547/3
f 607/5/4 605/5/4 608/548/4
f 605/5/4 607/5/4 606/549/4
f 605/5/5 602/5/5 608/550/5
f 602/5/5 605/5/5 601/551/5
f 603/2/6 607/3/6 604/11/6
f 607/3/6 603/2/6 606/1/6
f 596/3/1 609/2/1 595/1/1
f 609/3/1 596/2/1 610/1/1
f 611/3/2 596/2/2 595/1/2
f 596/3/2 611/2/2 612/1/2
f 613/5/3 609/5/3 610/552/3
f 609/5/3 613/5/3 614/553/3
f 613/5/4 611/5/4 614/554/4
f 611/5/4 613/5/4 612/555/4
f 611/5/5 609/5/5 614/556/5
f 609/5/5 611/5/5 595/5/5
f 596/2/6 613/3/6 610/11/6
f 613/3/6 596/2/6 612/1/6
f 617/3/1 616/2/1 615/1/1
f 616/3/1 617/2/1 618/1/1
f 619/3/2 617/2/2 615/1/2
f 617/3/2 619/2/2 620/1/2
f 621/5/3 616/5/3 618/557/3
f 616/5/3 621/5/3 622/558/3
f 621/5/4 619/5/4 622/559/4
f 619/5/4 621/5/4 620/560/4
f 619/5/5 616/5/5 622/561/5
f 616/5/5 619/5/5 615/562/5
f 617/2/6 621/3/6 618/11/6
f 621/3/6 617/2/6 620/1/6
f 625/3/1 624/2/1 623/1/1
f 624/3/1 625/2/1 626/1/1
f 602/3/2 625/2/2 623/1/2
f 625/3/2 602/2/2 604/1/2
f 627/5/3 624/5/3 626/563/3
f 624/5/3 627/5/3 628/564/3
f 627/5/4 602/5/4 628/565/4
f 602/5/4 627/5/4 604/566/4
f 602/5/5 624/5/5 628/567/5
f 624/5/5 602/5/5 623/568/5
f 625/2/6 627/3/6 626/11/6
f 627/3/6 625/2/6 604/1/6
f 631/3/1 630/2/1 629/1/1
f 630/3/1 631/2/1 632/1/1
f 624/3/2 631/2/2 629/1/2
f 631/3/2 624/2/2 626/1/2
f 633/5/3 630/5/3 632/569/3
f 630/5/3 633/5/3 634/570/3
f 633/5/4 624/5/4 634/571/4
f 624/5/4 633/5/4 626/572/4
f 624/5/5 630/5/5 634/573/5
f 630/5/5 624/5/5 629/574/5
f 631/2/6 633/3/6 632/11/6
f 633/3/6 631/2/6 626/1/6
f 627/3/1 635/2/1 628/1/1
f 635/3/1 627/2/1 636/1/1
f 588/3/2 627/2/2 628/1/2
f 627/3/2 588/2/2 590/1/2
f 637/5/3 635/5/3 636/575/3
f 635/5/3 637/5/3 638/576/3
f 637/5/4 588/5/4 638/577/4
f 588/5/4 637/5/4 590/578/4
f 588/5/5 635/5/5 638/579/5
f 635/5/5 588/5/5 628/567/5
f 627/2/6 637/3/6 636/11/6
f 637/3/6 627/2/6 590/1/6
f 641/3/1 640/2/1 639/1/1
f 640/3/1 641/2/1 642/1/1
f 630/3/2 641/2/2 639/1/2
f 641/3/2 630/2/2 632/1/2
f 643/5/3 640/5/3 642/580/3
f 640/5/3 643/5/3 644/581/3
f 643/5/4 630/5/4 644/582/4
f 630/5/4 643/5/4 632/583/4
f 630/5/5 640/5/5 644/584/5
f 640/5/5 630/5/5 639/585/5
f 641/2/6 643/3/6 642/11/6
f 643/3/6 641/2/6 632/1/6
f 633/3/1 645/2/1 634/1/1
f 645/3/1 633/2/1 646/1/1
f 635/3/2 633/2/2 634/1/2
f 633/3/2 635/2/2 636/1/2
f 647/5/3 645/5/3 646/586/3
f 645/5/3 647/5/3 648/587/3
f 647/5/4 635/5/4 648/588/4
f 635/5/4 647/5/4 636/589/4
f 635/5/5 645/5/5 648/590/5
f 645/5/5 635/5/5 634/573/5
f 633/2/6 647/3/6 646/11/6
f 647/3/6 633/2/6 636/1/6
f 651/3/1 650/2/1 649/1/1
f 650/3/1 651/2/1 652/1/1
f 640/3/2 651/2/2 649/1/2
f 651/3/2 640/2/2 642/1/2
f 653/5/3 650/5/3 652/591/3
f 650/5/3 653/5/3 654/592/3
f 653/5/4 640/5/4 654/593/4
f 640/5/4 653/5/4 642/594/4
f 640/5/5 650/5/5 654/595/5
f 650/5/5 640/5/5 649/596/5
f 651/2/6 653/3/6 652/11/6
f 653/3/6 651/2/6 642/1/6
f 643/3/1 655/2/1 644/1/1
f 655/3/1 643/2/1 656/1/1
f 645/3/2 643/2/2 644/1/2
f 643/3/2 645/2/2 646/1/2
f 657/5/3 655/5/3 656/597/3
f 655/5/3 657/5/3 658/598/3
f 657/5/4 645/5/4 658/599/4
f 645/5/4 657/5/4 646/600/4
f 645/5/5 655/5/5 658/601/5
f 655/5/5 645/5/5 644/584/5
f 643/2/6 657/3/6 656/11/6
f 657/3/6 643/2/6 646/1/6
f 657/3/1 659/2/1 658/1/1
f 659/3/1 657/2/1 660/1/1
f 661/3/2 657/2/2 658/1/2
f 657/3/2 661/2/2 662/1/2
f 663/5/3 659/5/3 660/602/3
f 659/5/3 663/5/3 664/603/3
f 663/5/4 661/5/4 664/604/4
f 661/5/4 663/5/4 662/605/4
f 661/5/5 659/5/5 664/606/5
f 659/5/5 661/5/5 658/601/5
f 657/2/6 663/3/6 660/11/6
f 663/3/6 657/2/6 662/1/6
f 653/3/1 665/2/1 654/1/1
f 665/3/1 653/2/1 666/1/1
f 667/3/2 653/2/2 654/1/2
f 653/3/2 667/2/2 668/1/2
f 669/5/3 665/5/3 666/607/3
f 665/5/3 669/5/3 670/608/3
f 669/5/4 667/5/4 670/609/4
f 667/5/4 669/5/4 668/610/4
f 667/5/5 665/5/5 670/611/5
f 665/5/5 667/5/5 654/595/5
f 653/2/6 669/3/6 666/11/6
f 669/3/6 653/2/6 668/1/6
f 663/3/1 671/2/1 664/1/1
f 671/3/1 663/2/1 672/1/1
f 673/3/2 663/2/2 664/1/2
f 663/3/2 673/2/2 674/1/2
f 675/5/3 671/5/3 672/612/3
f 671/5/3 675/5/3 676/613/3
f 675/5/4 673/5/4 676/614/4
f 673/5/4 675/5/4 674/615/4
f 673/5/5 671/5/5 676/616/5
f 671/5/5 673/5/5 664/606/5
f 663/2/6 675/3/6 672/11/6
f 675/3/6 663/2/6 674/1/6
f 679/3/1 678/2/1 677/1/1
f 678/3/1 679/2/1 680/1/1
f 681/3/2 679/2/2 677/1/2
f 679/3/2 681/2/2 682/1/2
f 683/5/3 678/5/3 680/617/3
f 678/5/3 683/5/3 684/618/3
f 683/5/4 681/5/4 684/619/4
f 681/5/4 683/5/4 682/620/4
f 681/5/5 678/5/5 684/621/5
f 678/5/5 681/5/5 677/622/5
f 679/2/6 683/3/6 680/11/6
f 683/3/6 679/2/6 682/1/6
f 675/3/1 685/2/1 676/1/1
f 685/3/1 675/2/1 686/1/1
f 687/3/2 675/2/2 676/1/2
f 675/3/2 687/2/2 688/1/2
f 689/5/3 685/5/3 686/623/3
f 685/5/3 689/5/3 690/624/3
f 689/5/4 687/5/4 690/625/4
f 687/5/4 689/5/4 688/626/4
f 687/5/5 685/5/5 690/627/5
f 685/5/5 687/5/5 676/616/5
f 675/2/6 689/3/6 686/11/6
f 689/3/6 675/2/6 688/1/6
f 693/3/1 692/2/1 691/1/1
f 692/3/1 693/2/1 694/1/1
f 695/3/2 693/2/2 691/1/2
f 693/3/2 695/2/2 696/1/2
f 697/5/3 692/5/3 694/628/3
f 692/5/3 697/5/3 698/629/3
f 697/5/4 695/5/4 698/630/4
f 695/5/4 697/5/4 696/631/4
f 695/5/5 692/5/5 698/632/5
f 692/5/5 695/5/5 691/633/5
f 693/2/6 697/3/6 694/11/6
f 697/3/6 693/2/6 696/1/6
f 669/3/1 699/2/1 670/1/1
f 699/3/1 669/2/1 700/1/1
f 701/3/2 669/2/2 670/1/2
f 669/3/2 701/2/2 702/1/2
f 703/5/3 699/5/3 700/634/3
f 699/5/3 703/5/3 704/635/3
f 703/5/4 701/5/4 704/636/4
f 701/5/4 703/5/4 702/637/4
f 701/5/5 699/5/5 704/638/5
f 699/5/5 701/5/5 670/611/5
f 669/2/6 703/3/6 700/11/6
f 703/3/6 669/2/6 702/1/6
f 689/3/1 705/2/1 690/1/1
f 705/3/1 689/2/1 706/1/1
f 707/3/2 689/2/2 690/1/2
f 689/3/2 707/2/2 708/1/2
f 709/5/3 705/5/3 706/639/3
f 705/5/3 709/5/3 710/640/3
f 709/5/4 707/5/4 710/641/4
f 707/5/4 709/5/4 708/642/4
f 707/5/5 705/5/5 710/643/5
f 705/5/5 707/5/5 690/627/5
f 689/2/6 709/3/6 706/11/6
f 709/3/6 689/2/6 708/1/6
f 713/3/1 712/2/1 711/1/1
f 712/3/1 713/2/1 714/1/1
f 715/3/2 713/2/2 711/1/2
f 713/3/2 715/2/2 716/1/2
f 717/5/3 712/5/3 714/644/3
f 712/5/3 717/5/3 718/645/3
f 717/5/4 715/5/4 718/646/4
f 715/5/4 717/5/4 716/647/4
f 715/5/5 712/5/5 718/648/5
f 712/5/5 715/5/5 711/649/5
f 713/2/6 717/3/6 714/11/6
f 717/3/6 713/2/6 716/1/6
f 703/3/1 719/2/1 704/1/1
f 719/3/1 703/2/1 720/1/1
f 721/3/2 703/2/2 704/1/2
f 703/3/2 721/2/2 722/1/2
f 723/5/3 719/5/3 720/650/3
f 719/5/3 723/5/3 724/651/3
f 723/5/4 721/5/4 724/652/4
f 721/5/4 723/5/4 722/653/4
f 721/5/5 719/5/5 724/654/5
f 719/5/5 721/5/5 704/638/5
f 703/2/6 723/3/6 720/11/6
f 723/3/6 703/2/6 722/1/6
f 709/3/1 725/2/1 710/1/1
f 725/3/1 709/2/1 726/1/1
f 727/3/2 709/2/2 710/1/2
f 709/3/2 727/2/2 728/1/2
f 729/5/3 725/5/3 726/655/3
f 725/5/3 729/5/3 730/656/3
f 729/5/4 727/5/4 730/657/4
f 727/5/4 729/5/4 728/658/4
f 727/5/5 725/5/5 730/659/5
f 725/5/5 727/5/5 710/643/5
f 709/2/6 729/3/6 726/11/6
f 729/3/6 709/2/6 728/1/6
f 733/3/1 732/2/1 731/1/1
f 732/3/1 733/2/1 734/1/1
f 735/3/2 733/2/2 731/1/2
f 733/3/2 735/2/2 736/1/2
f 737/5/3 732/5/3 734/660/3
f 732/5/3 737/5/3 738/661/3
f 737/5/4 735/5/4 738/662/4
f 735/5/4 737/5/4 736/663/4
f 735/5/5 732/5/5 738/664/5
f 732/5/5 735/5/5 731/665/5
f 733/2/6 737/3/6 734/11/6
f 737/3/6 733/2/6 736/1/6
f 723/3/1 739/2/1 724/1/1
f 739/3/1 723/2/1 740/1/1
f 741/3/2 723/2/2 724/1/2
f 723/3/2 741/2/2 742/1/2
f 743/5/3 739/5/3 740/666/3
f 739/5/3 743/5/3 744/667/3
f 743/5/4 741/5/4 744/668/4
f 741/5/4 743/5/4 742/669/4
f 741/5/5 739/5/5 744/670/5
f 739/5/5 741/5/5 724/654/5
f 723/2/6 743/3/6 740/11/6
f 743/3/6 723/2/6 742/1/6
f 729/3/1 745/2/1 730/1/1
f 745/3/1 729/2/1 746/1/1
f 747/3/2 729/2/2 730/1/2
f 729/3/2 747/2/2 748/1/2
f 749/5/3 745/5/3 746/671/3
f 745/5/3 749/5/3 750/672/3
f 749/5/4 747/5/4 750/673/4
f 747/5/4 749/5/4 748/674/4
f 747/5/5 745/5/5 750/675/5
f 745/5/5 747/5/5 730/659/5
f 729/2/6 749/3/6 746/11/6
f 749/3/6 729/2/6 748/1/6
f 753/3/1 752/2/1 751/1/1
f 752/3/1 753/2/1 754/1/1
f 732/3/2 753/2/2 751/1/2
f 753/3/2 732/2/2 734/1/2
f 755/5/3 752/5/3 754/676/3
f 752/5/3 755/5/3 756/677/3
f 755/5/4 732/5/4 756/678/4
f 732/5/4 755/5/4 734/679/4
f 732/5/5 752/5/5 756/680/5
f 752/5/5 732/5/5 751/681/5
f 753/2/6 755/3/6 754/11/6
f 755/3/6 753/2/6 734/1/6
f 743/3/1 757/2/1 744/1/1
f 757/3/1 743/2/1 758/1/1
f 759/3/2 743/2/2 744/1/2
f 743/3/2 759/2/2 760/1/2
f 761/5/3 757/5/3 758/682/3
f 757/5/3 761/5/3 762/683/3
f 761/5/4 759/5/4 762/684/4
f 759/5/4 761/5/4 760/685/4
f 759/5/5 757/5/5 762/686/5
f 757/5/5 759/5/5 744/670/5
f 743/2/6 761/3/6 758/11/6
f 761/3/6 743/2/6 760/1/6
f 749/3/1 763/2/1 750/1/1
f 763/3/1 749/2/1 764/1/1
f 765/3/2 749/2/2 750/1/2
f 749/3/2 765/2/2 766/1/2
f 767/5/3 763/5/3 764/687/3
f 763/5/3 767/5/3 768/688/3
f 767/5/4 765/5/4 768/689/4
f 765/5/4 767/5/4 766/690/4
f 765/5/5 763/5/5 768/691/5
f 763/5/5 765/5/5 750/675/5
f 749/2/6 767/3/6 764/11/6
f 767/3/6 749/2/6 766/1/6
f 771/3/1 770/2/1 769/1/1
f 770/3/1 771/2/1 772/1/1
f 752/3/2 771/2/2 769/1/2
f 771/3/2 752/2/2 754/1/2
f 773/5/3 770/5/3 772/692/3
f 770/5/3 773/5/3 774/693/3
f 773/5/4 752/5/4 774/694/4
f 752/5/4 773/5/4 754/695/4
f 752/5/5 770/5/5 774/696/5
f 770/5/5 752/5/5 769/697/5
f 771/2/6 773/3/6 772/11/6
f 773/3/6 771/2/6 754/1/6
f 755/3/1 775/2/1 756/1/1
f 775/3/1 755/2/1 776/1/1
f 712/3/2 755/2/2 756/1/2
f 755/3/2 712/2/2 714/1/2
f 777/5/3 775/5/3 776/698/3
f 775/5/3 777/5/3 778/699/3
f 777/5/4 712/5/4 778/700/4
f 712/5/4 777/5/4 714/701/4
f 712/5/5 775/5/5 778/702/5
f 775/5/5 712/5/5 756/680/5
f 755/2/6 777/3/6 776/11/6
f 777/3/6 755/2/6 714/1/6
f 761/3/1 779/2/1 762/1/1
f 779/3/1 761/2/1 780/1/1
f 781/3/2 761/2/2 762/1/2
f 761/3/2 781/2/2 782/1/2
f 783/5/3 779/5/3 780/703/3
f 779/5/3 783/5/3 784/704/3
f 783/5/4 781/5/4 784/705/4
f 781/5/4 783/5/4 782/706/4
f 781/5/5 779/5/5 784/707/5
f 779/5/5 781/5/5 762/686/5
f 761/2/6 783/3/6 780/11/6
f 783/3/6 761/2/6 782/1/6
f 767/3/1 785/2/1 768/1/1
f 785/3/1 767/2/1 786/1/1
f 770/3/2 767/2/2 768/1/2
f 767/3/2 770/2/2 772/1/2
f 787/5/3 785/5/3 786/708/3
f 785/5/3 787/5/3 788/709/3
f 787/5/4 770/5/4 788/710/4
f 770/5/4 787/5/4 772/711/4
f 770/5/5 785/5/5 788/712/5
f 785/5/5 770/5/5 768/691/5
f 767/2/6 787/3/6 786/11/6
f 787/3/6 767/2/6 772/1/6
f 773/3/1 789/2/1 774/1/1
f 789/3/1 773/2/1 790/1/1
f 775/3/2 773/2/2 774/1/2
f 773/3/2 775/2/2 776/1/2
f 791/5/3 789/5/3 790/713/3
f 789/5/3 791/5/3 792/714/3
f 791/5/4 775/5/4 792/715/4
f 775/5/4 791/5/4 776/716/4
f 775/5/5 789/5/5 792/717/5
f 789/5/5 775/5/5 774/696/5
f 773/2/6 791/3/6 790/11/6
f 791/3/6 773/2/6 776/1/6
f 783/3/1 793/2/1 784/1/1
f 793/3/1 783/2/1 794/1/1
f 795/3/2 783/2/2 784/1/2
f 783/3/2 795/2/2 796/1/2
f 797/5/3 793/5/3 794/718/3
f 793/5/3 797/5/3 798/719/3
f 797/5/4 795/5/4 798/720/4
f 795/5/4 797/5/4 796/721/4
f 795/5/5 793/5/5 798/722/5
f 793/5/5 795/5/5 784/707/5
f 783/2/6 797/3/6 794/11/6
f 797/3/6 783/2/6 796/1/6
f 787/3/1 799/2/1 788/1/1
f 799/3/1 787/2/1 800/1/1
f 789/3/2 787/2/2 788/1/2
f 787/3/2 789/2/2 790/1/2
f 801/5/3 799/5/3 800/723/3
f 799/5/3 801/5/3 802/724/3
f 801/5/4 789/5/4 802/725/4
f 789/5/4 801/5/4 790/726/4
f 789/5/5 799/5/5 802/727/5
f 799/5/5 789/5/5 788/712/5
f 787/2/6 801/3/6 800/11/6
f 801/3/6 787/2/6 790/1/6
f 797/3/1 803/2/1 798/1/1
f 803/3/1 797/2/1 804/1/1
f 799/3/2 797/2/2 798/1/2
f 797/3/2 799/2/2 800/1/2
f 805/5/3 803/5/3 804/728/3
f 803/5/3 805/5/3 806/729/3
f 805/5/4 799/5/4 806/730/4
f 799/5/4 805/5/4 800/731/4
f 799/5/5 803/5/5 806/732/5
f 803/5/5 799/5/5 798/722/5
f 797/2/6 805/3/6 804/11/6
f 805/3/6 797/2/6 800/1/6
f 592/3/1 595/2/1 591/1/1
f 595/3/1 592/2/1 596/1/1
f 597/3/2 592/2/2 591/1/2
f 592/3/2 597/2/2 598/1/2
f 599/5/3 595/5/3 596/541/3
f 595/5/3 599/5/3 600/542/3
f 599/5/4 597/5/4 600/543/4
f 597/5/4 599/5/4 598/544/4
f 597/5/5 595/5/5 600/545/5
f 595/5/5 597/5/5 591/5/5
f 592/2/6 599/3/6 596/11/6
f 599/3/6 592/2/6 598/1/6

usemtl color5

f 604/3/1 628/2/1 602/1/1
f 628/3/1 604/2/1 627/1/1
f 608/3/2 604/2/2 602/1/2
f 604/3/2 608/2/2 607/1/2
f 590/535/3 628/564/3 627/5/3
f 628/564/3 590/535/3 588/5/3
f 590/578/4 608/548/4 588/5/4
f 608/548/4 590/578/4 607/5/4
f 608/550/5 628/567/5 588/5/5
f 628/567/5 608/550/5 602/5/5
f 604/2/6 590/3/6 627/11/6
f 590/3/6 604/2/6 607/1/6
f 626/3/1 807/2/1 624/1/1
f 807/3/1 626/2/1 808/1/1
f 628/3/2 626/2/2 624/1/2
f 626/3/2 628/2/2 627/1/2
f 809/5/3 807/5/3 808/733/3
f 807/5/3 809/5/3 810/734/3
f 809/5/4 628/565/4 810/735/4
f 628/565/4 809/5/4 627/5/4
f 628/567/5 807/5/5 810/736/5
f 807/5/5 628/567/5 624/5/5
f 626/2/6 809/3/6 808/11/6
f 809/3/6 626/2/6 627/1/6
f 813/3/1 812/2/1 811/1/1
f 812/3/1 813/2/1 814/1/1
f 815/3/2 813/2/2 811/1/2
f 813/3/2 815/2/2 816/1/2
f 817/5/3 812/5/3 814/737/3
f 812/5/3 817/5/3 818/738/3
f 817/5/4 815/5/4 818/739/4
f 815/5/4 817/5/4 816/740/4
f 815/5/5 812/5/5 818/741/5
f 812/5/5 815/5/5 811/742/5
f 813/2/6 817/3/6 814/11/6
f 817/3/6 813/2/6 816/1/6
f 821/3/1 820/2/1 819/1/1
f 820/3/1 821/2/1 822/1/1
f 812/3/2 821/2/2 819/1/2
f 821/3/2 812/2/2 814/1/2
f 823/5/3 820/5/3 822/743/3
f 820/5/3 823/5/3 824/744/3
f 823/5/4 812/5/4 824/745/4
f 812/5/4 823/5/4 814/746/4
f 812/5/5 820/5/5 824/747/5
f 820/5/5 812/5/5 819/748/5
f 821/2/6 823/3/6 822/11/6
f 823/3/6 821/2/6 814/1/6
f 827/3/1 826/2/1 825/1/1
f 826/3/1 827/2/1 828/1/1
f 820/3/2 827/2/2 825/1/2
f 827/3/2 820/2/2 822/1/2
f 829/5/3 826/5/3 828/749/3
f 826/5/3 829/5/3 830/750/3
f 829/5/4 820/5/4 830/751/4
f 820/5/4 829/5/4 822/752/4
f 820/5/5 826/5/5 830/753/5
f 826/5/5 820/5/5 825/754/5
f 827/2/6 829/3/6 828/11/6
f 829/3/6 827/2/6 822/1/6
f 833/3/1 832/2/1 831/1/1
f 832/3/1 833/2/1 834/1/1
f 826/3/2 833/2/2 831/1/2
f 833/3/2 826/2/2 828/1/2
f 835/5/3 832/5/3 834/755/3
f 832/5/3 835/5/3 836/756/3
f 835/5/4 826/5/4 836/757/4
f 826/5/4 835/5/4 828/758/4
f 826/5/5 832/5/5 836/759/5
f 832/5/5 826/5/5 831/760/5
f 833/2/6 835/3/6 834/11/6
f 835/3/6 833/2/6 828/1/6
f 839/3/1 838/2/1 837/1/1
f 838/3/1 839/2/1 840/1/1
f 832/3/2 839/2/2 837/1/2
f 839/3/2 832/2/2 834/1/2
f 841/5/3 838/5/3 840/761/3
f 838/5/3 841/5/3 842/762/3
f 841/5/4 832/5/4 842/763/4
f 832/5/4 841/5/4 834/764/4
f 832/5/5 838/5/5 842/765/5
f 838/5/5 832/5/5 837/766/5
f 839/2/6 841/3/6 840/11/6
f 841/3/6 839/2/6 834/1/6
f 845/3/1 844/2/1 843/1/1
f 844/3/1 845/2/1 846/1/1
f 838/3/2 845/2/2 843/1/2
f 845/3/2 838/2/2 840/1/2
f 847/5/3 844/5/3 846/767/3
f 844/5/3 847/5/3 848/768/3
f 847/5/4 838/5/4 848/769/4
f 838/5/4 847/5/4 840/770/4
f 838/5/5 844/5/5 848/771/5
f 844/5/5 838/5/5 843/772/5
f 845/2/6 847/3/6 846/11/6
f 847/3/6 845/2/6 840/1/6
f 851/3/1 850/2/1 849/1/1
f 850/3/1 851/2/1 852/1/1
f 844/3/2 851/2/2 849/1/2
f 851/3/2 844/2/2 846/1/2
f 853/5/3 850/5/3 852/773/3
f 850/5/3 853/5/3 854/774/3
f 853/5/4 844/5/4 854/775/4
f 844/5/4 853/5/4 846/776/4
f 844/5/5 850/5/5 854/777/5
f 850/5/5 844/5/5 849/778/5
f 851/2/6 853/3/6 852/11/6
f 853/3/6 851/2/6 846/1/6
f 857/3/1 856/2/1 855/1/1
f 856/3/1 857/2/1 858/1/1
f 850/3/2 857/2/2 855/1/2
f 857/3/2 850/2/2 852/1/2
f 859/5/3 856/5/3 858/779/3
f 856/5/3 859/5/3 860/780/3
f 859/5/4 850/5/4 860/781/4
f 850/5/4 859/5/4 852/782/4
f 850/5/5 856/5/5 860/783/5
f 856/5/5 850/5/5 855/784/5
f 857/2/6 859/3/6 858/11/6
f 859/3/6 857/2/6 852/1/6
f 863/3/1 862/2/1 861/1/1
f 862/3/1 863/2/1 864/1/1
f 856/3/2 863/2/2 861/1/2
f 863/3/2 856/2/2 858/1/2
f 865/5/3 862/5/3 864/785/3
f 862/5/3 865/5/3 866/786/3
f 865/5/4 856/5/4 866/787/4
f 856/5/4 865/5/4 858/788/4
f 856/5/5 862/5/5 866/789/5
f 862/5/5 856/5/5 861/790/5
f 863/2/6 865/3/6 864/11/6
f 865/3/6 863/2/6 858/1/6
f 869/3/1 868/2/1 867/1/1
f 868/3/1 869/2/1 870/1/1
f 862/3/2 869/2/2 867/1/2
f 869/3/2 862/2/2 864/1/2
f 871/5/3 868/5/3 870/791/3
f 868/5/3 871/5/3 872/792/3
f 871/5/4 862/5/4 872/793/4
f 862/5/4 871/5/4 864/794/4
f 862/5/5 868/5/5 872/795/5
f 868/5/5 862/5/5 867/796/5
f 869/2/6 871/3/6 870/11/6
f 871/3/6 869/2/6 864/1/6
f 875/3/1 874/2/1 873/1/1
f 874/3/1 875/2/1 876/1/1
f 868/3/2 875/2/2 873/1/2
f 875/3/2 868/2/2 870/1/2
f 877/5/3 874/5/3 876/797/3
f 874/5/3 877/5/3 878/798/3
f 877/5/4 868/5/4 878/799/4
f 868/5/4 877/5/4 870/800/4
f 868/5/5 874/5/5 878/801/5
f 874/5/5 868/5/5 873/802/5
f 875/2/6 877/3/6 876/11/6
f 877/3/6 875/2/6 870/1/6
f 881/3/1 880/2/1 879/1/1
f 880/3/1 881/2/1 882/1/1
f 874/3/2 881/2/2 879/1/2
f 881/3/2 874/2/2 876/1/2
f 883/5/3 880/5/3 882/803/3
f 880/5/3 883/5/3 884/804/3
f 883/5/4 874/5/4 884/805/4
f 874/5/4 883/5/4 876/806/4
f 874/5/5 880/5/5 884/807/5
f 880/5/5 874/5/5 879/808/5
f 881/2/6 883/3/6 882/11/6
f 883/3/6 881/2/6 876/1/6
f 660/3/1 885/2/1 659/1/1
f 885/3/1 660/2/1 886/1/1
f 664/3/2 660/2/2 659/1/2
f 660/3/2 664/2/2 663/1/2
f 672/612/3 885/5/3 886/809/3
f 885/5/3 672/612/3 671/5/3
f 672/5/4 664/604/4 671/810/4
f 664/604/4 672/5/4 663/5/4
f 664/606/5 885/5/5 671/5/5
f 885/5/5 664/606/5 659/5/5
f 660/2/6 672/3/6 886/11/6
f 672/3/6 660/2/6 663/1/6
f 889/3/1 888/2/1 887/1/1
f 888/3/1 889/2/1 890/1/1
f 880/3/2 889/2/2 887/1/2
f 889/3/2 880/2/2 882/1/2
f 891/5/3 888/5/3 890/811/3
f 888/5/3 891/5/3 892/812/3
f 891/5/4 880/5/4 892/813/4
f 880/5/4 891/5/4 882/814/4
f 880/5/5 888/5/5 892/815/5
f 888/5/5 880/5/5 887/816/5
f 889/2/6 891/3/6 890/11/6
f 891/3/6 889/2/6 882/1/6
f 672/3/1 893/2/1 671/1/1
f 893/3/1 672/2/1 894/1/1
f 676/3/2 672/2/2 671/1/2
f 672/3/2 676/2/2 675/1/2
f 686/623/3 893/5/3 894/817/3
f 893/5/3 686/623/3 685/5/3
f 686/5/4 676/614/4 685/818/4
f 676/614/4 686/5/4 675/5/4
f 676/616/5 893/5/5 685/5/5
f 893/5/5 676/616/5 671/5/5
f 672/2/6 686/3/6 894/11/6
f 686/3/6 672/2/6 675/1/6
f 897/3/1 896/2/1 895/1/1
f 896/3/1 897/2/1 898/1/1
f 888/3/2 897/2/2 895/1/2
f 897/3/2 888/2/2 890/1/2
f 899/5/3 896/5/3 898/819/3
f 896/5/3 899/5/3 900/820/3
f 899/5/4 888/5/4 900/821/4
f 888/5/4 899/5/4 890/822/4
f 888/5/5 896/5/5 900/823/5
f 896/5/5 888/5/5 895/824/5
f 897/2/6 899/3/6 898/11/6
f 899/3/6 897/2/6 890/1/6
f 902/3/1 707/2/1 901/1/1
f 707/3/1 902/2/1 708/1/1
f 896/3/2 902/2/2 901/1/2
f 902/3/2 896/2/2 898/1/2
f 903/5/3 707/5/3 708/825/3
f 707/5/3 903/5/3 904/826/3
f 903/5/4 896/5/4 904/827/4
f 896/5/4 903/5/4 898/828/4
f 896/5/5 707/5/5 904/829/5
f 707/5/5 896/5/5 901/830/5
f 902/2/6 903/3/6 708/11/6
f 903/3/6 902/2/6 898/1/6
f 686/3/1 905/2/1 685/1/1
f 905/3/1 686/2/1 906/1/1
f 690/3/2 686/2/2 685/1/2
f 686/3/2 690/2/2 689/1/2
f 706/639/3 905/5/3 906/831/3
f 905/5/3 706/639/3 705/5/3
f 706/5/4 690/625/4 705/832/4
f 690/625/4 706/5/4 689/5/4
f 690/627/5 905/5/5 705/5/5
f 905/5/5 690/627/5 685/5/5
f 686/2/6 706/3/6 906/11/6
f 706/3/6 686/2/6 689/1/6
f 706/3/1 907/2/1 705/1/1
f 907/3/1 706/2/1 908/1/1
f 710/3/2 706/2/2 705/1/2
f 706/3/2 710/2/2 709/1/2
f 726/655/3 907/5/3 908/833/3
f 907/5/3 726/655/3 725/5/3
f 726/5/4 710/641/4 725/834/4
f 710/641/4 726/5/4 709/5/4
f 710/643/5 907/5/5 725/5/5
f 907/5/5 710/643/5 705/5/5
f 706/2/6 726/3/6 908/11/6
f 726/3/6 706/2/6 709/1/6
f 726/3/1 909/2/1 725/1/1
f 909/3/1 726/2/1 910/1/1
f 730/3/2 726/2/2 725/1/2
f 726/3/2 730/2/2 729/1/2
f 746/671/3 909/5/3 910/835/3
f 909/5/3 746/671/3 745/5/3
f 746/5/4 730/657/4 745/836/4
f 730/657/4 746/5/4 729/5/4
f 730/659/5 909/5/5 745/5/5
f 909/5/5 730/659/5 725/5/5
f 726/2/6 746/3/6 910/11/6
f 746/3/6 726/2/6 729/1/6
f 734/3/1 756/2/1 732/1/1
f 756/3/1 734/2/1 755/1/1
f 738/3/2 734/2/2 732/1/2
f 734/3/2 738/2/2 737/1/2
f 714/644/3 756/677/3 755/5/3
f 756/677/3 714/644/3 712/5/3
f 714/701/4 738/662/4 712/5/4
f 738/662/4 714/701/4 737/5/4
f 738/664/5 756/680/5 712/5/5
f 756/680/5 738/664/5 732/5/5
f 734/2/6 714/3/6 755/11/6
f 714/3/6 734/2/6 737/1/6
f 913/3/1 912/2/1 911/1/1
f 912/3/1 913/2/1 914/1/1
f 739/3/2 913/2/2 911/1/2
f 913/3/2 739/2/2 740/1/2
f 915/5/3 912/5/3 914/837/3
f 912/5/3 915/5/3 916/838/3
f 915/5/4 739/5/4 916/839/4
f 739/5/4 915/5/4 740/840/4
f 739/5/5 912/5/5 916/841/5
f 912/5/5 739/5/5 911/842/5
f 913/2/6 915/3/6 914/11/6
f 915/3/6 913/2/6 740/1/6
f 746/3/1 917/2/1 745/1/1
f 917/3/1 746/2/1 918/1/1
f 750/3/2 746/2/2 745/1/2
f 746/3/2 750/2/2 749/1/2
f 764/687/3 917/5/3 918/843/3
f 917/5/3 764/687/3 763/5/3
f 764/5/4 750/673/4 763/844/4
f 750/673/4 764/5/4 749/5/4
f 750/675/5 917/5/5 763/5/5
f 917/5/5 750/675/5 745/5/5
f 746/2/6 764/3/6 918/11/6
f 764/3/6 746/2/6 749/1/6
f 754/3/1 774/2/1 752/1/1
f 774/3/1 754/2/1 773/1/1
f 756/3/2 754/2/2 752/1/2
f 754/3/2 756/2/2 755/1/2
f 776/698/3 774/693/3 773/5/3
f 774/693/3 776/698/3 775/5/3
f 776/716/4 756/678/4 775/5/4
f 756/678/4 776/716/4 755/5/4
f 756/680/5 774/696/5 775/5/5
f 774/696/5 756/680/5 752/5/5
f 754/2/6 776/3/6 773/11/6
f 776/3/6 754/2/6 755/1/6
f 921/3/1 920/2/1 919/1/1
f 920/3/1 921/2/1 922/1/1
f 912/3/2 921/2/2 919/1/2
f 921/3/2 912/2/2 914/1/2
f 923/5/3 920/5/3 922/845/3
f 920/5/3 923/5/3 924/846/3
f 923/5/4 912/5/4 924/847/4
f 912/5/4 923/5/4 914/848/4
f 912/5/5 920/5/5 924/849/5
f 920/5/5 912/5/5 919/850/5
f 921/2/6 923/3/6 922/11/6
f 923/3/6 921/2/6 914/1/6
f 927/3/1 926/2/1 925/1/1
f 926/3/1 927/2/1 928/1/1
f 768/3/2 927/2/2 925/1/2
f 927/3/2 768/2/2 767/1/2
f 786/708/3 926/5/3 928/851/3
f 926/5/3 786/708/3 785/5/3
f 786/5/4 768/689/4 785/852/4
f 768/689/4 786/5/4 767/5/4
f 768/691/5 926/5/5 785/5/5
f 926/5/5 768/691/5 925/853/5
f 927/2/6 786/3/6 928/11/6
f 786/3/6 927/2/6 767/1/6
f 772/3/1 788/2/1 770/1/1
f 788/3/1 772/2/1 787/1/1
f 774/3/2 772/2/2 770/1/2
f 772/3/2 774/2/2 773/1/2
f 790/713/3 788/709/3 787/5/3
f 788/709/3 790/713/3 789/5/3
f 790/726/4 774/694/4 789/5/4
f 774/694/4 790/726/4 773/5/4
f 774/696/5 788/712/5 789/5/5
f 788/712/5 774/696/5 770/5/5
f 772/2/6 790/3/6 787/11/6
f 790/3/6 772/2/6 773/1/6
f 931/3/1 930/2/1 929/1/1
f 930/3/1 931/2/1 932/1/1
f 920/3/2 931/2/2 929/1/2
f 931/3/2 920/2/2 922/1/2
f 933/5/3 930/5/3 932/854/3
f 930/5/3 933/5/3 934/855/3
f 933/5/4 920/5/4 934/856/4
f 920/5/4 933/5/4 922/857/4
f 920/5/5 930/5/5 934/858/5
f 930/5/5 920/5/5 929/859/5
f 931/2/6 933/3/6 932/11/6
f 933/3/6 931/2/6 922/1/6
f 937/3/1 936/2/1 935/1/1
f 936/3/1 937/2/1 938/1/1
f 788/3/2 937/2/2 935/1/2
f 937/3/2 788/2/2 787/1/2
f 800/723/3 936/5/3 938/860/3
f 936/5/3 800/723/3 799/5/3
f 800/731/4 788/710/4 799/5/4
f 788/710/4 800/731/4 787/5/4
f 788/712/5 936/5/5 799/5/5
f 936/5/5 788/712/5 935/861/5
f 937/2/6 800/3/6 938/11/6
f 800/3/6 937/2/6 787/1/6
f 941/3/1 940/2/1 939/1/1
f 940/3/1 941/2/1 942/1/1
f 930/3/2 941/2/2 939/1/2
f 941/3/2 930/2/2 932/1/2
f 943/5/3 940/5/3 942/862/3
f 940/5/3 943/5/3 944/863/3
f 943/5/4 930/5/4 944/864/4
f 930/5/4 943/5/4 932/865/4
f 930/5/5 940/5/5 944/866/5
f 940/5/5 930/5/5 939/867/5
f 941/2/6 943/3/6 942/11/6
f 943/3/6 941/2/6 932/1/6
f 947/3/1 946/2/1 945/1/1
f 946/3/1 947/2/1 948/1/1
f 940/3/2 947/2/2 945/1/2
f 947/3/2 940/2/2 942/1/2
f 949/5/3 946/5/3 948/868/3
f 946/5/3 949/5/3 950/869/3
f 949/5/4 940/5/4 950/870/4
f 940/5/4 949/5/4 942/871/4
f 940/5/5 946/5/5 950/872/5
f 946/5/5 940/5/5 945/873/5
f 947/2/6 949/3/6 948/11/6
f 949/3/6 947/2/6 942/1/6

usemtl color3

f 953/3/1 952/2/1 951/1/1
f 952/3/1 953/2/1 954/1/1
f 955/3/2 953/2/2 951/1/2
f 953/3/2 955/2/2 956/1/2
f 813/5/3 952/5/3 954/874/3
f 952/5/3 813/5/3 811/875/3
f 813/5/4 955/5/4 811/876/4
f 955/5/4 813/5/4 956/877/4
f 955/5/5 952/5/5 811/742/5
f 952/5/5 955/5/5 951/878/5
f 953/2/6 813/3/6 954/11/6
f 813/3/6 953/2/6 956/1/6
f 959/3/1 958/2/1 957/1/1
f 958/3/1 959/2/1 960/1/1
f 952/3/2 959/2/2 957/1/2
f 959/3/2 952/2/2 954/1/2
f 821/5/3 958/5/3 960/879/3
f 958/5/3 821/5/3 819/880/3
f 821/5/4 952/5/4 819/881/4
f 952/5/4 821/5/4 954/882/4
f 952/5/5 958/5/5 819/748/5
f 958/5/5 952/5/5 957/883/5
f 959/2/6 821/3/6 960/11/6
f 821/3/6 959/2/6 954/1/6
f 963/3/1 962/2/1 961/1/1
f 962/3/1 963/2/1 964/1/1
f 958/3/2 963/2/2 961/1/2
f 963/3/2 958/2/2 960/1/2
f 827/5/3 962/5/3 964/884/3
f 962/5/3 827/5/3 825/885/3
f 827/5/4 958/5/4 825/886/4
f 958/5/4 827/5/4 960/887/4
f 958/5/5 962/5/5 825/754/5
f 962/5/5 958/5/5 961/888/5
f 963/2/6 827/3/6 964/11/6
f 827/3/6 963/2/6 960/1/6
f 817/3/1 965/2/1 818/1/1
f 965/3/1 817/2/1 966/1/1
f 967/3/2 817/2/2 818/1/2
f 817/3/2 967/2/2 968/1/2
f 969/5/3 965/5/3 966/889/3
f 965/5/3 969/5/3 970/890/3
f 969/5/4 967/5/4 970/891/4
f 967/5/4 969/5/4 968/892/4
f 967/5/5 965/5/5 970/893/5
f 965/5/5 967/5/5 818/741/5
f 817/2/6 969/3/6 966/11/6
f 969/3/6 817/2/6 968/1/6
f 823/3/1 971/2/1 824/1/1
f 971/3/1 823/2/1 972/1/1
f 965/3/2 823/2/2 824/1/2
f 823/3/2 965/2/2 966/1/2
f 973/5/3 971/5/3 972/894/3
f 971/5/3 973/5/3 974/895/3
f 973/5/4 965/5/4 974/896/4
f 965/5/4 973/5/4 966/897/4
f 965/5/5 971/5/5 974/898/5
f 971/5/5 965/5/5 824/747/5
f 823/2/6 973/3/6 972/11/6
f 973/3/6 823/2/6 966/1/6
f 829/3/1 975/2/1 830/1/1
f 975/3/1 829/2/1 976/1/1
f 971/3/2 829/2/2 830/1/2
f 829/3/2 971/2/2 972/1/2
f 977/5/3 975/5/3 976/899/3
f 975/5/3 977/5/3 978/900/3
f 977/5/4 971/5/4 978/901/4
f 971/5/4 977/5/4 972/902/4
f 971/5/5 975/5/5 978/903/5
f 975/5/5 971/5/5 830/753/5
f 829/2/6 977/3/6 976/11/6
f 977/3/6 829/2/6 972/1/6
f 980/3/1 939/2/1 979/1/1
f 939/3/1 980/2/1 941/1/1
f 929/3/2 980/2/2 979/1/2
f 980/3/2 929/2/2 931/1/2
f 932/854/3 939/5/3 941/904/3
f 939/5/3 932/854/3 930/5/3
f 932/865/4 929/5/4 930/5/4
f 929/5/4 932/865/4 931/905/4
f 929/859/5 939/867/5 930/5/5
f 939/867/5 929/859/5 979/906/5
f 980/2/6 932/3/6 941/11/6
f 932/3/6 980/2/6 931/1/6
f 983/3/1 982/2/1 981/1/1
f 982/3/1 983/2/1 984/1/1
f 985/3/2 983/2/2 981/1/2
f 983/3/2 985/2/2 986/1/2
f 947/5/3 982/5/3 984/907/3
f 982/5/3 947/5/3 945/908/3
f 947/5/4 985/5/4 945/909/4
f 985/5/4 947/5/4 986/910/4
f 985/5/5 982/5/5 945/873/5
f 982/5/5 985/5/5 981/911/5
f 983/2/6 947/3/6 984/11/6
f 947/3/6 983/2/6 986/1/6
f 932/3/1 944/2/1 930/1/1
f 944/3/1 932/2/1 943/1/1
f 934/3/2 932/2/2 930/1/2
f 932/3/2 934/2/2 933/1/2
f 987/5/3 944/863/3 943/5/3
f 944/863/3 987/5/3 988/912/3
f 987/5/4 934/856/4 988/913/4
f 934/856/4 987/5/4 933/5/4
f 934/858/5 944/866/5 988/914/5
f 944/866/5 934/858/5 930/5/5
f 932/2/6 987/3/6 943/11/6
f 987/3/6 932/2/6 933/1/6
f 949/3/1 989/2/1 950/1/1
f 989/3/1 949/2/1 990/1/1
f 991/3/2 949/2/2 950/1/2
f 949/3/2 991/2/2 992/1/2
f 993/5/3 989/5/3 990/915/3
f 989/5/3 993/5/3 994/916/3
f 993/5/4 991/5/4 994/917/4
f 991/5/4 993/5/4 992/918/4
f 991/5/5 989/5/5 994/919/5
f 989/5/5 991/5/5 950/872/5
f 949/2/6 993/3/6 990/11/6
f 993/3/6 949/2/6 992/1/6

usemtl color4

f 78/3/1 995/2/1 76/1/1
f 995/3/1 78/2/1 996/1/1
f 46/3/2 78/2/2 76/1/2
f 78/3/2 46/2/2 48/1/2
f 997/5/3 995/5/3 996/920/3
f 995/5/3 997/5/3 998/921/3
f 997/5/4 46/73/4 998/922/4
f 46/73/4 997/5/4 48/5/4
f 46/5/5 995/5/5 998/923/5
f 995/5/5 46/5/5 76/5/5
f 78/2/6 997/3/6 996/11/6
f 997/3/6 78/2/6 48/1/6
f 1001/3/1 1000/2/1 999/1/1
f 1000/3/1 1001/2/1 1002/1/1
f 1003/3/2 1001/2/2 999/1/2
f 1001/3/2 1003/2/2 1004/1/2
f 156/139/3 1000/5/3 1002/924/3
f 1000/5/3 156/139/3 154/5/3
f 156/178/4 1003/5/4 154/5/4
f 1003/5/4 156/178/4 1004/925/4
f 1003/5/5 1000/5/5 154/5/5
f 1000/5/5 1003/5/5 999/926/5
f 1001/2/6 156/3/6 1002/11/6
f 156/3/6 1001/2/6 1004/1/6
f 1006/3/1 979/2/1 1005/1/1
f 979/3/1 1006/2/1 980/1/1
f 1007/3/2 1006/2/2 1005/1/2
f 1006/3/2 1007/2/2 1008/1/2
f 931/5/3 979/5/3 980/927/3
f 979/5/3 931/5/3 929/928/3
f 931/905/4 1007/5/4 929/5/4
f 1007/5/4 931/905/4 1008/929/4
f 1007/5/5 979/906/5 929/859/5
f 979/906/5 1007/5/5 1005/930/5
f 1006/2/6 931/3/6 980/11/6
f 931/3/6 1006/2/6 1008/1/6
f 508/3/1 1009/2/1 506/1/1
f 1009/3/1 508/2/1 1010/1/1
f 470/3/2 508/2/2 506/1/2
f 508/3/2 470/2/2 472/1/2
f 1011/5/3 1009/5/3 1010/931/3
f 1009/5/3 1011/5/3 1012/932/3
f 1011/5/4 470/461/4 1012/933/4
f 470/461/4 1011/5/4 472/5/4
f 470/5/5 1009/5/5 1012/934/5
f 1009/5/5 470/5/5 506/5/5
f 508/2/6 1011/3/6 1010/11/6
f 1011/3/6 508/2/6 472/1/6
f 1014/3/1 985/2/1 1013/1/1
f 985/3/1 1014/2/1 986/1/1
f 979/3/2 1014/2/2 1013/1/2
f 1014/3/2 979/2/2 980/1/2
f 941/904/3 985/5/3 986/935/3
f 985/5/3 941/904/3 939/5/3
f 941/5/4 979/5/4 939/936/4
f 979/5/4 941/5/4 980/937/4
f 979/906/5 985/5/5 939/867/5
f 985/5/5 979/906/5 1013/938/5
f 1014/2/6 941/3/6 986/11/6
f 941/3/6 1014/2/6 980/1/6
f 933/3/1 988/2/1 934/1/1
f 988/3/1 933/2/1 987/1/1
f 1015/3/2 933/2/2 934/1/2
f 933/3/2 1015/2/2 1016/1/2
f 1017/5/3 988/912/3 987/5/3
f 988/912/3 1017/5/3 1018/939/3
f 1017/5/4 1015/5/4 1018/940/4
f 1015/5/4 1017/5/4 1016/941/4
f 1015/5/5 988/914/5 1018/942/5
f 988/914/5 1015/5/5 934/858/5
f 933/2/6 1017/3/6 987/11/6
f 1017/3/6 933/2/6 1016/1/6
f 943/3/1 991/2/1 944/1/1
f 991/3/1 943/2/1 992/1/1
f 988/3/2 943/2/2 944/1/2
f 943/3/2 988/2/2 987/1/2
f 1019/5/3 991/5/3 992/943/3
f 991/5/3 1019/5/3 1020/944/3
f 1019/5/4 988/913/4 1020/945/4
f 988/913/4 1019/5/4 987/5/4
f 988/914/5 991/5/5 1020/946/5
f 991/5/5 988/914/5 944/866/5
f 943/2/6 1019/3/6 992/11/6
f 1019/3/6 943/2/6 987/1/6
f 1023/3/1 1022/2/1 1021/1/1
f 1022/3/1 1023/2/1 1024/1/1
f 1025/3/2 1023/2/2 1021/1/2
f 1023/3/2 1025/2/2 1026/1/2
f 574/519/3 1022/5/3 1024/947/3
f 1022/5/3 574/519/3 572/5/3
f 574/532/4 1025/5/4 572/5/4
f 1025/5/4 574/532/4 1026/948/4
f 1025/5/5 1022/5/5 572/5/5
f 1022/5/5 1025/5/5 1021/949/5
f 1023/2/6 574/3/6 1024/11/6
f 574/3/6 1023/2/6 1026/1/6

usemtl color2

f 954/3/1 819/2/1 952/1/1
f 819/3/1 954/2/1 821/1/1
f 811/3/2 954/2/2 952/1/2
f 954/3/2 811/2/2 813/1/2
f 814/737/3 819/880/3 821/5/3
f 819/880/3 814/737/3 812/5/3
f 814/746/4 811/876/4 812/5/4
f 811/876/4 814/746/4 813/5/4
f 811/742/5 819/748/5 812/5/5
f 819/748/5 811/742/5 952/5/5
f 954/2/6 814/3/6 821/11/6
f 814/3/6 954/2/6 813/1/6
f 960/3/1 825/2/1 958/1/1
f 825/3/1 960/2/1 827/1/1
f 819/3/2 960/2/2 958/1/2
f 960/3/2 819/2/2 821/1/2
f 822/743/3 825/885/3 827/5/3
f 825/885/3 822/743/3 820/5/3
f 822/752/4 819/881/4 820/5/4
f 819/881/4 822/752/4 821/5/4
f 819/748/5 825/754/5 820/5/5
f 825/754/5 819/748/5 958/5/5
f 960/2/6 822/3/6 827/11/6
f 822/3/6 960/2/6 821/1/6
f 814/3/1 824/2/1 812/1/1
f 824/3/1 814/2/1 823/1/1
f 818/3/2 814/2/2 812/1/2
f 814/3/2 818/2/2 817/1/2
f 966/889/3 824/744/3 823/5/3
f 824/744/3 966/889/3 965/5/3
f 966/897/4 818/739/4 965/5/4
f 818/739/4 966/897/4 817/5/4
f 818/741/5 824/747/5 965/5/5
f 824/747/5 818/741/5 812/5/5
f 814/2/6 966/3/6 823/11/6
f 966/3/6 814/2/6 817/1/6
f 964/3/1 831/2/1 962/1/1
f 831/3/1 964/2/1 833/1/1
f 825/3/2 964/2/2 962/1/2
f 964/3/2 825/2/2 827/1/2
f 828/749/3 831/5/3 833/950/3
f 831/5/3 828/749/3 826/5/3
f 828/758/4 825/886/4 826/5/4
f 825/886/4 828/758/4 827/5/4
f 825/754/5 831/760/5 826/5/5
f 831/760/5 825/754/5 962/5/5
f 964/2/6 828/3/6 833/11/6
f 828/3/6 964/2/6 827/1/6
f 822/3/1 830/2/1 820/1/1
f 830/3/1 822/2/1 829/1/1
f 824/3/2 822/2/2 820/1/2
f 822/3/2 824/2/2 823/1/2
f 972/894/3 830/750/3 829/5/3
f 830/750/3 972/894/3 971/5/3
f 972/902/4 824/745/4 971/5/4
f 824/745/4 972/902/4 823/5/4
f 824/747/5 830/753/5 971/5/5
f 830/753/5 824/747/5 820/5/5
f 822/2/6 972/3/6 829/11/6
f 972/3/6 822/2/6 823/1/6
f 828/3/1 836/2/1 826/1/1
f 836/3/1 828/2/1 835/1/1
f 830/3/2 828/2/2 826/1/2
f 828/3/2 830/2/2 829/1/2
f 976/899/3 836/756/3 835/5/3
f 836/756/3 976/899/3 975/5/3
f 976/5/4 830/751/4 975/951/4
f 830/751/4 976/5/4 829/5/4
f 830/753/5 836/759/5 975/5/5
f 836/759/5 830/753/5 826/5/5
f 828/2/6 976/3/6 835/11/6
f 976/3/6 828/2/6 829/1/6
f 986/3/1 945/2/1 985/1/1
f 945/3/1 986/2/1 947/1/1
f 939/3/2 986/2/2 985/1/2
f 986/3/2 939/2/2 941/1/2
f 942/862/3 945/908/3 947/5/3
f 945/908/3 942/862/3 940/5/3
f 942/871/4 939/936/4 940/5/4
f 939/936/4 942/871/4 941/5/4
f 939/867/5 945/873/5 940/5/5
f 945/873/5 939/867/5 985/5/5
f 986/2/6 942/3/6 947/11/6
f 942/3/6 986/2/6 941/1/6
f 984/3/1 1027/2/1 982/1/1
f 1027/3/1 984/2/1 1028/1/1
f 945/3/2 984/2/2 982/1/2
f 984/3/2 945/2/2 947/1/2
f 1029/5/3 1027/5/3 1028/952/3
f 1027/5/3 1029/5/3 1030/953/3
f 1029/5/4 945/909/4 1030/954/4
f 945/909/4 1029/5/4 947/5/4
f 945/873/5 1027/5/5 1030/955/5
f 1027/5/5 945/873/5 982/5/5
f 984/2/6 1029/3/6 1028/11/6
f 1029/3/6 984/2/6 947/1/6
f 942/3/1 950/2/1 940/1/1
f 950/3/1 942/2/1 949/1/1
f 944/3/2 942/2/2 940/1/2
f 942/3/2 944/2/2 943/1/2
f 992/943/3 950/869/3 949/5/3
f 950/869/3 992/943/3 991/5/3
f 992/918/4 944/864/4 991/5/4
f 944/864/4 992/918/4 943/5/4
f 944/866/5 950/872/5 991/5/5
f 950/872/5 944/866/5 940/5/5
f 942/2/6 992/3/6 949/11/6
f 992/3/6 942/2/6 943/1/6
f 948/3/1 1030/2/1 946/1/1
f 1030/3/1 948/2/1 1029/1/1
f 950/3/2 948/2/2 946/1/2
f 948/3/2 950/2/2 949/1/2
f 990/915/3 1030/953/3 1029/5/3
f 1030/953/3 990/915/3 989/5/3
f 990/5/4 950/870/4 989/956/4
f 950/870/4 990/5/4 949/5/4
f 950/872/5 1030/955/5 989/5/5
f 1030/955/5 950/872/5 946/5/5
f 948/2/6 990/3/6 1029/11/6
f 990/3/6 948/2/6 949/1/6

usemtl color7

f 808/3/1 634/2/1 807/1/1
f 634/3/1 808/2/1 633/1/1
f 810/3/2 808/2/2 807/1/2
f 808/3/2 810/2/2 809/1/2
f 636/575/3 634/570/3 633/5/3
f 634/570/3 636/575/3 635/5/3
f 636/589/4 810/735/4 635/5/4
f 810/735/4 636/589/4 809/5/4
f 810/736/5 634/573/5 635/5/5
f 634/573/5 810/736/5 807/5/5
f 808/2/6 636/3/6 633/11/6
f 636/3/6 808/2/6 809/1/6
f 632/3/1 644/2/1 630/1/1
f 644/3/1 632/2/1 643/1/1
f 634/3/2 632/2/2 630/1/2
f 632/3/2 634/2/2 633/1/2
f 646/586/3 644/581/3 643/5/3
f 644/581/3 646/586/3 645/5/3
f 646/600/4 634/571/4 645/5/4
f 634/571/4 646/600/4 633/5/4
f 634/573/5 644/584/5 645/5/5
f 644/584/5 634/573/5 630/5/5
f 632/2/6 646/3/6 643/11/6
f 646/3/6 632/2/6 633/1/6
f 642/3/1 1031/2/1 640/1/1
f 1031/3/1 642/2/1 1032/1/1
f 644/3/2 642/2/2 640/1/2
f 642/3/2 644/2/2 643/1/2
f 1033/5/3 1031/5/3 1032/957/3
f 1031/5/3 1033/5/3 1034/958/3
f 1033/5/4 644/582/4 1034/959/4
f 644/582/4 1033/5/4 643/5/4
f 644/584/5 1031/5/5 1034/960/5
f 1031/5/5 644/584/5 640/5/5
f 642/2/6 1033/3/6 1032/11/6
f 1033/3/6 642/2/6 643/1/6
f 656/3/1 1035/2/1 655/1/1
f 1035/3/1 656/2/1 1036/1/1
f 658/3/2 656/2/2 655/1/2
f 656/3/2 658/2/2 657/1/2
f 1037/5/3 1035/5/3 1036/961/3
f 1035/5/3 1037/5/3 1038/962/3
f 1037/5/4 658/599/4 1038/963/4
f 658/599/4 1037/5/4 657/5/4
f 658/601/5 1035/5/5 1038/964/5
f 1035/5/5 658/601/5 655/5/5
f 656/2/6 1037/3/6 1036/11/6
f 1037/3/6 656/2/6 657/1/6
f 886/3/1 701/2/1 885/1/1
f 701/3/1 886/2/1 702/1/1
f 671/3/2 886/2/2 885/1/2
f 886/3/2 671/2/2 672/1/2
f 1039/5/3 701/5/3 702/965/3
f 701/5/3 1039/5/3 1040/966/3
f 1039/5/4 671/810/4 1040/967/4
f 671/810/4 1039/5/4 672/5/4
f 671/5/5 701/5/5 1040/968/5
f 701/5/5 671/5/5 885/5/5
f 886/2/6 1039/3/6 702/11/6
f 1039/3/6 886/2/6 672/1/6
f 906/3/1 741/2/1 905/1/1
f 741/3/1 906/2/1 742/1/1
f 705/3/2 906/2/2 905/1/2
f 906/3/2 705/2/2 706/1/2
f 908/833/3 741/5/3 742/969/3
f 741/5/3 908/833/3 907/5/3
f 908/5/4 705/832/4 907/970/4
f 705/832/4 908/5/4 706/5/4
f 705/5/5 741/5/5 907/5/5
f 741/5/5 705/5/5 905/5/5
f 906/2/6 908/3/6 742/11/6
f 908/3/6 906/2/6 706/1/6
f 908/3/1 759/2/1 907/1/1
f 759/3/1 908/2/1 760/1/1
f 725/3/2 908/2/2 907/1/2
f 908/3/2 725/2/2 726/1/2
f 910/835/3 759/5/3 760/971/3
f 759/5/3 910/835/3 909/5/3
f 910/5/4 725/834/4 909/972/4
f 725/834/4 910/5/4 726/5/4
f 725/5/5 759/5/5 909/5/5
f 759/5/5 725/5/5 907/5/5
f 908/2/6 910/3/6 760/11/6
f 910/3/6 908/2/6 726/1/6
f 1042/3/1 781/2/1 1041/1/1
f 781/3/1 1042/2/1 782/1/1
f 745/3/2 1042/2/2 1041/1/2
f 1042/3/2 745/2/2 746/1/2
f 918/843/3 781/5/3 782/973/3
f 781/5/3 918/843/3 917/5/3
f 918/5/4 745/836/4 917/974/4
f 745/836/4 918/5/4 746/5/4
f 745/5/5 781/5/5 917/5/5
f 781/5/5 745/5/5 1041/975/5
f 1042/2/6 918/3/6 782/11/6
f 918/3/6 1042/2/6 746/1/6
f 918/3/1 1043/2/1 917/1/1
f 1043/3/1 918/2/1 1044/1/1
f 925/3/2 918/2/2 917/1/2
f 918/3/2 925/2/2 927/1/2
f 928/851/3 1043/5/3 1044/976/3
f 1043/5/3 928/851/3 926/5/3
f 928/5/4 925/5/4 926/977/4
f 925/5/4 928/5/4 927/978/4
f 925/853/5 1043/5/5 926/5/5
f 1043/5/5 925/853/5 917/5/5
f 918/2/6 928/3/6 1044/11/6
f 928/3/6 918/2/6 927/1/6
f 796/3/1 798/2/1 795/1/1
f 798/3/1 796/2/1 797/1/1
f 935/3/2 796/2/2 795/1/2
f 796/3/2 935/2/2 937/1/2
f 938/860/3 798/719/3 797/5/3
f 798/719/3 938/860/3 936/5/3
f 938/5/4 935/5/4 936/979/4
f 935/5/4 938/5/4 937/980/4
f 935/861/5 798/722/5 936/5/5
f 798/722/5 935/861/5 795/5/5
f 796/2/6 938/3/6 797/11/6
f 938/3/6 796/2/6 937/1/6

usemtl color8

f 1032/3/1 1045/2/1 1031/1/1
f 1045/3/1 1032/2/1 1046/1/1
f 1034/3/2 1032/2/2 1031/1/2
f 1032/3/2 1034/2/2 1033/1/2
f 656/597/3 1045/5/3 1046/981/3
f 1045/5/3 656/597/3 655/5/3
f 656/5/4 1034/959/4 655/982/4
f 1034/959/4 656/5/4 1033/5/4
f 1034/960/5 1045/5/5 655/5/5
f 1045/5/5 1034/960/5 1031/5/5
f 1032/2/6 656/3/6 1046/11/6
f 656/3/6 1032/2/6 1033/1/6
f 1036/3/1 1047/2/1 1035/1/1
f 1047/3/1 1036/2/1 1048/1/1
f 1038/3/2 1036/2/2 1035/1/2
f 1036/3/2 1038/2/2 1037/1/2
f 886/809/3 1047/5/3 1048/983/3
f 1047/5/3 886/809/3 885/5/3
f 886/5/4 1038/963/4 885/984/4
f 1038/963/4 886/5/4 1037/5/4
f 1038/964/5 1047/5/5 885/5/5
f 1047/5/5 1038/964/5 1035/5/5
f 1036/2/6 886/3/6 1048/11/6
f 886/3/6 1036/2/6 1037/1/6
f 702/3/1 1049/2/1 701/1/1
f 1049/3/1 702/2/1 1050/1/1
f 1040/3/2 702/2/2 701/1/2
f 702/3/2 1040/2/2 1039/1/2
f 894/817/3 1049/5/3 1050/985/3
f 1049/5/3 894/817/3 893/5/3
f 894/5/4 1040/967/4 893/986/4
f 1040/967/4 894/5/4 1039/5/4
f 1040/968/5 1049/5/5 893/5/5
f 1049/5/5 1040/968/5 701/5/5
f 702/2/6 894/3/6 1050/11/6
f 894/3/6 702/2/6 1039/1/6
f 894/3/1 724/2/1 893/1/1
f 724/3/1 894/2/1 723/1/1
f 685/3/2 894/2/2 893/1/2
f 894/3/2 685/2/2 686/1/2
f 742/969/3 724/651/3 723/5/3
f 724/651/3 742/969/3 741/5/3
f 742/669/4 685/818/4 741/5/4
f 685/818/4 742/669/4 686/5/4
f 685/5/5 724/654/5 741/5/5
f 724/654/5 685/5/5 893/5/5
f 894/2/6 742/3/6 723/11/6
f 742/3/6 894/2/6 686/1/6
f 742/3/1 744/2/1 741/1/1
f 744/3/1 742/2/1 743/1/1
f 907/3/2 742/2/2 741/1/2
f 742/3/2 907/2/2 908/1/2
f 760/971/3 744/667/3 743/5/3
f 744/667/3 760/971/3 759/5/3
f 760/685/4 907/970/4 759/5/4
f 907/970/4 760/685/4 908/5/4
f 907/5/5 744/670/5 759/5/5
f 744/670/5 907/5/5 741/5/5
f 742/2/6 760/3/6 743/11/6
f 760/3/6 742/2/6 908/1/6
f 760/3/1 762/2/1 759/1/1
f 762/3/1 760/2/1 761/1/1
f 1041/3/2 760/2/2 759/1/2
f 760/3/2 1041/2/2 1042/1/2
f 782/973/3 762/683/3 761/5/3
f 762/683/3 782/973/3 781/5/3
f 782/706/4 1041/5/4 781/5/4
f 1041/5/4 782/706/4 1042/987/4
f 1041/975/5 762/686/5 781/5/5
f 762/686/5 1041/975/5 759/5/5
f 760/2/6 782/3/6 761/11/6
f 782/3/6 760/2/6 1042/1/6
f 782/3/1 784/2/1 781/1/1
f 784/3/1 782/2/1 783/1/1
f 917/3/2 782/2/2 781/1/2
f 782/3/2 917/2/2 918/1/2
f 1044/976/3 784/704/3 783/5/3
f 784/704/3 1044/976/3 1043/5/3
f 1044/5/4 917/974/4 1043/988/4
f 917/974/4 1044/5/4 918/5/4
f 917/5/5 784/707/5 1043/5/5
f 784/707/5 917/5/5 781/5/5
f 782/2/6 1044/3/6 783/11/6
f 1044/3/6 782/2/6 918/1/6

usemtl color9

f 1046/3/1 654/2/1 1045/1/1
f 654/3/1 1046/2/1 653/1/1
f 655/3/2 1046/2/2 1045/1/2
f 1046/3/2 655/2/2 656/1/2
f 668/5/3 654/592/3 653/5/3
f 654/592/3 668/5/3 667/989/3
f 668/610/4 655/982/4 667/5/4
f 655/982/4 668/610/4 656/5/4
f 655/5/5 654/595/5 667/5/5
f 654/595/5 655/5/5 1045/5/5
f 1046/2/6 668/3/6 653/11/6
f 668/3/6 1046/2/6 656/1/6
f 1048/3/1 670/2/1 1047/1/1
f 670/3/1 1048/2/1 669/1/1
f 885/3/2 1048/2/2 1047/1/2
f 1048/3/2 885/2/2 886/1/2
f 702/965/3 670/608/3 669/5/3
f 670/608/3 702/965/3 701/5/3
f 702/637/4 885/984/4 701/5/4
f 885/984/4 702/637/4 886/5/4
f 885/5/5 670/611/5 701/5/5
f 670/611/5 885/5/5 1047/5/5
f 1048/2/6 702/3/6 669/11/6
f 702/3/6 1048/2/6 886/1/6
f 1050/3/1 704/2/1 1049/1/1
f 704/3/1 1050/2/1 703/1/1
f 893/3/2 1050/2/2 1049/1/2
f 1050/3/2 893/2/2 894/1/2
f 722/5/3 704/635/3 703/5/3
f 704/635/3 722/5/3 721/990/3
f 722/653/4 893/986/4 721/5/4
f 893/986/4 722/653/4 894/5/4
f 893/5/5 704/638/5 721/5/5
f 704/638/5 893/5/5 1049/5/5
f 1050/2/6 722/3/6 703/11/6
f 722/3/6 1050/2/6 894/1/6

